<svg width="41" height="40" viewBox="0 0 41 40" fill="none" xmlns="http://www.w3.org/2000/svg">
<g id="Vector">
<mask id="path-1-inside-1_75_1341" fill="white">
<path fill-rule="evenodd" clip-rule="evenodd" d="M12.3957 30.6822C12.6068 30.9006 12.6068 31.5561 12.3957 31.7745C12.1845 31.8977 11.9046 31.953 11.5511 31.8698C11.3386 31.8199 11.1411 31.4547 11.1289 31.2077C11.1187 31.0027 11.4034 30.5567 11.7623 30.4637C12.0368 30.3383 12.2755 30.5578 12.3957 30.6822Z"/>
<path fill-rule="evenodd" clip-rule="evenodd" d="M17.2518 29.1529C17.4715 29.2852 17.463 29.5898 17.463 29.8244C17.463 30.1099 17.3048 30.2452 16.8296 30.2452C16.4602 30.2452 16.1116 29.7385 16.1335 29.5898C16.1713 29.3335 16.2477 29.0851 16.6184 28.9344C16.7069 28.8984 17.0901 29.0069 17.2518 29.1529Z"/>
<path d="M8.4393 18.2833C8.91962 18.0219 9.48498 18.0568 9.97078 18.3079C11.2676 18.9781 13.7781 20.2759 13.8564 20.3187C16.8296 21.9433 15.4558 21.1766 18.3075 22.8171C18.8886 23.1514 19.1528 23.3063 19.1349 24.108C19.06 27.4548 19.0989 30.8045 19.1087 34.153C19.1096 34.5049 19.0584 34.7458 18.7192 34.9345C15.8071 36.5541 12.9083 38.1989 9.99524 39.8167C9.81091 39.9191 9.48822 39.9563 9.32018 39.8581C6.35667 38.1257 3.40481 36.3721 0.46163 34.6028C0.302379 34.507 0.150739 34.2344 0.149717 34.0432C0.131075 30.5527 0.130411 27.0619 0.15079 23.5714C0.151913 23.3678 0.315863 23.0809 0.486249 22.9754C3.08861 21.3644 3.95019 21.0079 6.69497 19.3216C6.93444 19.1744 7.75096 18.6579 8.4393 18.2833ZM1.10627 24.1053C1.04988 24.0729 0.980183 24.1148 0.980188 24.1815C0.980194 24.26 0.980194 24.3516 0.980169 24.4083C0.978432 27.6153 0.953661 30.4388 0.980169 33.6455C0.98211 33.8824 1.21434 34.055 1.41654 34.1778C3.66056 35.5402 5.49218 36.5549 7.75066 37.8918C8.46116 38.3124 8.85644 38.5433 9.10355 38.6457C9.15068 38.6653 9.2842 38.7595 9.31541 38.6665C9.31993 38.6531 9.32018 38.6385 9.32019 38.6243C9.32148 35.9614 9.3615 33.9536 9.35491 31.3845C9.35389 30.9851 9.11762 30.9668 8.83354 31.1124C8.41595 31.3265 7.99127 31.529 7.58844 31.7702C6.3161 32.5318 5.08612 32.4154 3.96058 31.3729C3.93236 31.3468 3.92475 31.3038 3.94229 31.2691C4.7269 29.7151 6.03979 28.6779 7.39152 27.6465C7.44097 27.6088 7.43586 27.5306 7.38214 27.4997C5.16555 26.2272 3.33515 25.3843 1.10627 24.1053ZM12.2754 33.2153C13.0874 33.2058 13.8939 32.3942 13.8896 31.5908C13.8846 30.6548 13.1355 29.8766 12.2432 29.8806C11.3611 29.8845 10.6627 30.629 10.6625 31.5656C10.6624 32.4936 11.3781 33.2256 12.2754 33.2153ZM17.1188 28.2347C16.3761 28.2473 15.6874 28.9848 15.7136 29.7394C15.743 30.5855 16.435 31.2799 17.2372 31.2683C18.0376 31.2568 18.67 30.5716 18.6579 29.7291C18.6458 28.881 17.9655 28.2204 17.1188 28.2347ZM5.96369 30.4643C5.92364 30.5162 5.95358 30.5927 6.01714 30.6019C7.47818 30.8128 8.45367 30.6812 9.02162 28.9226C9.03781 28.8724 9.00704 28.8184 8.9574 28.806C8.68443 28.7376 8.38593 28.5992 8.1921 28.6929C7.35296 29.0991 6.59602 29.6451 5.96369 30.4643Z"/>
<path fill-rule="evenodd" clip-rule="evenodd" d="M27.8756 30.6822C27.6645 30.9006 27.6645 31.5561 27.8756 31.7745C28.0868 31.8977 28.3667 31.953 28.7202 31.8698C28.9327 31.8199 29.1302 31.4547 29.1424 31.2077C29.1526 31.0027 28.8679 30.5567 28.509 30.4637C28.2345 30.3383 27.9958 30.5578 27.8756 30.6822Z"/>
<path fill-rule="evenodd" clip-rule="evenodd" d="M23.0195 29.1529C22.7998 29.2852 22.8084 29.5898 22.8084 29.8244C22.8084 30.1099 22.9666 30.2452 23.4418 30.2452C23.8111 30.2452 24.1597 29.7385 24.1378 29.5898C24.1 29.3335 24.0237 29.0851 23.6529 28.9344C23.5645 28.8984 23.1812 29.0069 23.0195 29.1529Z"/>
<path d="M31.832 18.2833C31.3517 18.0219 30.7863 18.0568 30.3005 18.3079C29.0037 18.9781 26.4932 20.2759 26.4149 20.3187C23.4418 21.9432 24.8156 21.1766 21.9638 22.8171C21.3827 23.1514 21.1186 23.3063 21.1365 24.108C21.2113 27.4548 21.1724 30.8045 21.1627 34.153C21.1617 34.5049 21.2129 34.7458 21.5522 34.9345C24.4642 36.5541 27.363 38.1989 30.2761 39.8167C30.4604 39.9191 30.7831 39.9563 30.9511 39.8581C33.9146 38.1257 36.8664 36.3721 39.8096 34.6028C39.9689 34.507 40.1205 34.2344 40.1215 34.0432C40.1402 30.5527 40.1408 27.0619 40.1205 23.5714C40.1193 23.3678 39.9554 23.0809 39.785 22.9754C37.1827 21.3644 36.3211 21.0079 33.5763 19.3216C33.3368 19.1744 32.5203 18.6579 31.832 18.2833ZM39.165 24.1053C39.2214 24.0729 39.2911 24.1148 39.2911 24.1815C39.2911 24.26 39.2911 24.3516 39.2911 24.4083C39.2928 27.6153 39.3176 30.4388 39.2911 33.6455C39.2891 33.8824 39.0569 34.055 38.8547 34.1778C36.6107 35.5402 34.7791 36.5549 32.5206 37.8918C31.8101 38.3124 31.4148 38.5433 31.1677 38.6457C31.1206 38.6653 30.9871 38.7595 30.9559 38.6665C30.9514 38.653 30.9511 38.6385 30.9511 38.6243C30.9498 35.9614 30.9098 33.9536 30.9164 31.3845C30.9174 30.9851 31.1537 30.9668 31.4377 31.1124C31.8553 31.3265 32.28 31.529 32.6828 31.7702C33.9552 32.5318 35.1852 32.4154 36.3107 31.3729C36.3389 31.3468 36.3465 31.3038 36.329 31.269C35.5444 29.7151 34.2315 28.6779 32.8798 27.6465C32.8303 27.6088 32.8354 27.5306 32.8891 27.4997C35.1057 26.2272 36.9361 25.3842 39.165 24.1053ZM27.9959 33.2153C27.184 33.2058 26.3774 32.3942 26.3817 31.5908C26.3867 30.6548 27.1358 29.8766 28.0281 29.8806C28.9102 29.8845 29.6086 30.629 29.6088 31.5656C29.6089 32.4936 28.8932 33.2256 27.9959 33.2153ZM23.1525 28.2347C23.8953 28.2473 24.584 28.9848 24.5578 29.7394C24.5283 30.5855 23.8363 31.2799 23.0341 31.2683C22.2338 31.2568 21.6013 30.5716 21.6134 29.7291C21.6255 28.881 22.3058 28.2204 23.1525 28.2347ZM34.3076 30.4643C34.3476 30.5162 34.3177 30.5927 34.2541 30.6019C32.7931 30.8128 31.8176 30.6812 31.2497 28.9226C31.2335 28.8724 31.2642 28.8184 31.3139 28.8059C31.5868 28.7376 31.8854 28.5992 32.0792 28.6929C32.9183 29.0991 33.6753 29.6451 34.3076 30.4643Z"/>
<path fill-rule="evenodd" clip-rule="evenodd" d="M23.0409 12.6822C23.2632 12.9006 23.2632 13.5561 23.0409 13.7745C22.8187 13.8977 22.524 13.953 22.1519 13.8698C21.9282 13.8199 21.7203 13.4547 21.7074 13.2077C21.6967 13.0027 21.9964 12.5567 22.3742 12.4637C22.6632 12.3383 22.9144 12.5578 23.0409 12.6822Z"/>
<path fill-rule="evenodd" clip-rule="evenodd" d="M28.1527 11.1529C28.3839 11.2852 28.3749 11.5898 28.3749 11.8244C28.3749 12.1099 28.2084 12.2452 27.7082 12.2452C27.3194 12.2452 26.9525 11.7385 26.9755 11.5898C27.0153 11.3335 27.0957 11.0851 27.4859 10.9344C27.579 10.8984 27.9825 11.0069 28.1527 11.1529Z"/>
<path d="M18.9467 0.247184C19.4115 0.0100098 19.9505 0.0437892 20.4189 0.273761C21.7616 0.932966 24.4947 2.27512 24.5786 2.31866C27.7082 3.94325 26.2621 3.17663 29.2639 4.81715C29.8756 5.1514 30.1537 5.30631 30.1348 6.10796C30.056 9.4548 30.097 12.8045 30.1072 16.153C30.1083 16.5049 30.0543 16.7458 29.6972 16.9345C26.6319 18.5541 23.5805 20.1989 20.5142 21.8167C20.3201 21.9191 19.9805 21.9563 19.8036 21.8581C16.6841 20.1257 13.5769 18.3721 10.4788 16.6028C10.3112 16.507 10.1515 16.2344 10.1505 16.0432C10.1308 12.5527 10.1301 9.06194 10.1516 5.57137C10.1528 5.36782 10.3253 5.0809 10.5047 4.97539C13.244 3.36441 14.151 3.00791 17.0402 1.32157C17.3005 1.16966 18.2084 0.623905 18.9467 0.247184ZM11.1574 6.10528C11.098 6.07293 11.0246 6.11482 11.0246 6.18154C11.0246 6.26004 11.0246 6.35158 11.0246 6.40833C11.0228 9.61531 10.9967 12.4388 11.0246 15.6455C11.0267 15.8824 11.2711 16.055 11.484 16.1778C13.8461 17.5402 15.7741 18.5549 18.1514 19.8918C18.8994 20.3124 19.3154 20.5433 19.5755 20.6457C19.625 20.6652 19.7647 20.7588 19.7982 20.6675C19.8033 20.6535 19.8036 20.6381 19.8036 20.6232C19.805 17.9608 19.8471 15.9533 19.8401 13.3845C19.8391 12.9851 19.5904 12.9668 19.2913 13.1124C18.8518 13.3265 18.4047 13.529 17.9807 13.7702C16.6414 14.5318 15.3467 14.4154 14.1619 13.3729C14.1322 13.3468 14.1242 13.3038 14.1426 13.2691C14.9685 11.7151 16.3505 10.6779 17.7734 9.64652C17.8255 9.60879 17.8201 9.53058 17.7635 9.49974C15.4303 8.22722 13.5035 7.38425 11.1574 6.10528ZM22.9144 15.2153C23.769 15.2058 24.618 14.3942 24.6135 13.5908C24.6083 12.6548 23.8197 11.8766 22.8804 11.8806C21.9519 11.8845 21.2167 12.629 21.2166 13.5656C21.2164 14.4936 21.9698 15.2256 22.9144 15.2153ZM28.0127 10.2347C27.2308 10.2473 26.5059 10.9848 26.5335 11.7394C26.5645 12.5855 27.2929 13.2799 28.1373 13.2683C28.9798 13.2568 29.6455 12.5716 29.6328 11.7291C29.62 10.881 28.9039 10.2204 28.0127 10.2347ZM16.2704 12.4643C16.2283 12.5162 16.2598 12.5927 16.3267 12.6019C17.8646 12.8128 18.8915 12.6812 19.4893 10.9226C19.5063 10.8724 19.474 10.8184 19.4217 10.806C19.1344 10.7376 18.8202 10.5992 18.6161 10.6929C17.7328 11.0991 16.936 11.6451 16.2704 12.4643Z"/>
</mask>
<path fill-rule="evenodd" clip-rule="evenodd" d="M12.3957 30.6822C12.6068 30.9006 12.6068 31.5561 12.3957 31.7745C12.1845 31.8977 11.9046 31.953 11.5511 31.8698C11.3386 31.8199 11.1411 31.4547 11.1289 31.2077C11.1187 31.0027 11.4034 30.5567 11.7623 30.4637C12.0368 30.3383 12.2755 30.5578 12.3957 30.6822Z" fill="#E9EE01"/>
<path fill-rule="evenodd" clip-rule="evenodd" d="M17.2518 29.1529C17.4715 29.2852 17.463 29.5898 17.463 29.8244C17.463 30.1099 17.3048 30.2452 16.8296 30.2452C16.4602 30.2452 16.1116 29.7385 16.1335 29.5898C16.1713 29.3335 16.2477 29.0851 16.6184 28.9344C16.7069 28.8984 17.0901 29.0069 17.2518 29.1529Z" fill="#E9EE01"/>
<path d="M8.4393 18.2833C8.91962 18.0219 9.48498 18.0568 9.97078 18.3079C11.2676 18.9781 13.7781 20.2759 13.8564 20.3187C16.8296 21.9433 15.4558 21.1766 18.3075 22.8171C18.8886 23.1514 19.1528 23.3063 19.1349 24.108C19.06 27.4548 19.0989 30.8045 19.1087 34.153C19.1096 34.5049 19.0584 34.7458 18.7192 34.9345C15.8071 36.5541 12.9083 38.1989 9.99524 39.8167C9.81091 39.9191 9.48822 39.9563 9.32018 39.8581C6.35667 38.1257 3.40481 36.3721 0.46163 34.6028C0.302379 34.507 0.150739 34.2344 0.149717 34.0432C0.131075 30.5527 0.130411 27.0619 0.15079 23.5714C0.151913 23.3678 0.315863 23.0809 0.486249 22.9754C3.08861 21.3644 3.95019 21.0079 6.69497 19.3216C6.93444 19.1744 7.75096 18.6579 8.4393 18.2833ZM1.10627 24.1053C1.04988 24.0729 0.980183 24.1148 0.980188 24.1815C0.980194 24.26 0.980194 24.3516 0.980169 24.4083C0.978432 27.6153 0.953661 30.4388 0.980169 33.6455C0.98211 33.8824 1.21434 34.055 1.41654 34.1778C3.66056 35.5402 5.49218 36.5549 7.75066 37.8918C8.46116 38.3124 8.85644 38.5433 9.10355 38.6457C9.15068 38.6653 9.2842 38.7595 9.31541 38.6665C9.31993 38.6531 9.32018 38.6385 9.32019 38.6243C9.32148 35.9614 9.3615 33.9536 9.35491 31.3845C9.35389 30.9851 9.11762 30.9668 8.83354 31.1124C8.41595 31.3265 7.99127 31.529 7.58844 31.7702C6.3161 32.5318 5.08612 32.4154 3.96058 31.3729C3.93236 31.3468 3.92475 31.3038 3.94229 31.2691C4.7269 29.7151 6.03979 28.6779 7.39152 27.6465C7.44097 27.6088 7.43586 27.5306 7.38214 27.4997C5.16555 26.2272 3.33515 25.3843 1.10627 24.1053ZM12.2754 33.2153C13.0874 33.2058 13.8939 32.3942 13.8896 31.5908C13.8846 30.6548 13.1355 29.8766 12.2432 29.8806C11.3611 29.8845 10.6627 30.629 10.6625 31.5656C10.6624 32.4936 11.3781 33.2256 12.2754 33.2153ZM17.1188 28.2347C16.3761 28.2473 15.6874 28.9848 15.7136 29.7394C15.743 30.5855 16.435 31.2799 17.2372 31.2683C18.0376 31.2568 18.67 30.5716 18.6579 29.7291C18.6458 28.881 17.9655 28.2204 17.1188 28.2347ZM5.96369 30.4643C5.92364 30.5162 5.95358 30.5927 6.01714 30.6019C7.47818 30.8128 8.45367 30.6812 9.02162 28.9226C9.03781 28.8724 9.00704 28.8184 8.9574 28.806C8.68443 28.7376 8.38593 28.5992 8.1921 28.6929C7.35296 29.0991 6.59602 29.6451 5.96369 30.4643Z" fill="#E9EE01"/>
<path fill-rule="evenodd" clip-rule="evenodd" d="M27.8756 30.6822C27.6645 30.9006 27.6645 31.5561 27.8756 31.7745C28.0868 31.8977 28.3667 31.953 28.7202 31.8698C28.9327 31.8199 29.1302 31.4547 29.1424 31.2077C29.1526 31.0027 28.8679 30.5567 28.509 30.4637C28.2345 30.3383 27.9958 30.5578 27.8756 30.6822Z" fill="white"/>
<path fill-rule="evenodd" clip-rule="evenodd" d="M23.0195 29.1529C22.7998 29.2852 22.8084 29.5898 22.8084 29.8244C22.8084 30.1099 22.9666 30.2452 23.4418 30.2452C23.8111 30.2452 24.1597 29.7385 24.1378 29.5898C24.1 29.3335 24.0237 29.0851 23.6529 28.9344C23.5645 28.8984 23.1812 29.0069 23.0195 29.1529Z" fill="white"/>
<path d="M31.832 18.2833C31.3517 18.0219 30.7863 18.0568 30.3005 18.3079C29.0037 18.9781 26.4932 20.2759 26.4149 20.3187C23.4418 21.9432 24.8156 21.1766 21.9638 22.8171C21.3827 23.1514 21.1186 23.3063 21.1365 24.108C21.2113 27.4548 21.1724 30.8045 21.1627 34.153C21.1617 34.5049 21.2129 34.7458 21.5522 34.9345C24.4642 36.5541 27.363 38.1989 30.2761 39.8167C30.4604 39.9191 30.7831 39.9563 30.9511 39.8581C33.9146 38.1257 36.8664 36.3721 39.8096 34.6028C39.9689 34.507 40.1205 34.2344 40.1215 34.0432C40.1402 30.5527 40.1408 27.0619 40.1205 23.5714C40.1193 23.3678 39.9554 23.0809 39.785 22.9754C37.1827 21.3644 36.3211 21.0079 33.5763 19.3216C33.3368 19.1744 32.5203 18.6579 31.832 18.2833ZM39.165 24.1053C39.2214 24.0729 39.2911 24.1148 39.2911 24.1815C39.2911 24.26 39.2911 24.3516 39.2911 24.4083C39.2928 27.6153 39.3176 30.4388 39.2911 33.6455C39.2891 33.8824 39.0569 34.055 38.8547 34.1778C36.6107 35.5402 34.7791 36.5549 32.5206 37.8918C31.8101 38.3124 31.4148 38.5433 31.1677 38.6457C31.1206 38.6653 30.9871 38.7595 30.9559 38.6665C30.9514 38.653 30.9511 38.6385 30.9511 38.6243C30.9498 35.9614 30.9098 33.9536 30.9164 31.3845C30.9174 30.9851 31.1537 30.9668 31.4377 31.1124C31.8553 31.3265 32.28 31.529 32.6828 31.7702C33.9552 32.5318 35.1852 32.4154 36.3107 31.3729C36.3389 31.3468 36.3465 31.3038 36.329 31.269C35.5444 29.7151 34.2315 28.6779 32.8798 27.6465C32.8303 27.6088 32.8354 27.5306 32.8891 27.4997C35.1057 26.2272 36.9361 25.3842 39.165 24.1053ZM27.9959 33.2153C27.184 33.2058 26.3774 32.3942 26.3817 31.5908C26.3867 30.6548 27.1358 29.8766 28.0281 29.8806C28.9102 29.8845 29.6086 30.629 29.6088 31.5656C29.6089 32.4936 28.8932 33.2256 27.9959 33.2153ZM23.1525 28.2347C23.8953 28.2473 24.584 28.9848 24.5578 29.7394C24.5283 30.5855 23.8363 31.2799 23.0341 31.2683C22.2338 31.2568 21.6013 30.5716 21.6134 29.7291C21.6255 28.881 22.3058 28.2204 23.1525 28.2347ZM34.3076 30.4643C34.3476 30.5162 34.3177 30.5927 34.2541 30.6019C32.7931 30.8128 31.8176 30.6812 31.2497 28.9226C31.2335 28.8724 31.2642 28.8184 31.3139 28.8059C31.5868 28.7376 31.8854 28.5992 32.0792 28.6929C32.9183 29.0991 33.6753 29.6451 34.3076 30.4643Z" fill="white"/>
<path fill-rule="evenodd" clip-rule="evenodd" d="M23.0409 12.6822C23.2632 12.9006 23.2632 13.5561 23.0409 13.7745C22.8187 13.8977 22.524 13.953 22.1519 13.8698C21.9282 13.8199 21.7203 13.4547 21.7074 13.2077C21.6967 13.0027 21.9964 12.5567 22.3742 12.4637C22.6632 12.3383 22.9144 12.5578 23.0409 12.6822Z" fill="url(#paint0_linear_75_1341)"/>
<path fill-rule="evenodd" clip-rule="evenodd" d="M28.1527 11.1529C28.3839 11.2852 28.3749 11.5898 28.3749 11.8244C28.3749 12.1099 28.2084 12.2452 27.7082 12.2452C27.3194 12.2452 26.9525 11.7385 26.9755 11.5898C27.0153 11.3335 27.0957 11.0851 27.4859 10.9344C27.579 10.8984 27.9825 11.0069 28.1527 11.1529Z" fill="url(#paint1_linear_75_1341)"/>
<path d="M18.9467 0.247184C19.4115 0.0100098 19.9505 0.0437892 20.4189 0.273761C21.7616 0.932966 24.4947 2.27512 24.5786 2.31866C27.7082 3.94325 26.2621 3.17663 29.2639 4.81715C29.8756 5.1514 30.1537 5.30631 30.1348 6.10796C30.056 9.4548 30.097 12.8045 30.1072 16.153C30.1083 16.5049 30.0543 16.7458 29.6972 16.9345C26.6319 18.5541 23.5805 20.1989 20.5142 21.8167C20.3201 21.9191 19.9805 21.9563 19.8036 21.8581C16.6841 20.1257 13.5769 18.3721 10.4788 16.6028C10.3112 16.507 10.1515 16.2344 10.1505 16.0432C10.1308 12.5527 10.1301 9.06194 10.1516 5.57137C10.1528 5.36782 10.3253 5.0809 10.5047 4.97539C13.244 3.36441 14.151 3.00791 17.0402 1.32157C17.3005 1.16966 18.2084 0.623905 18.9467 0.247184ZM11.1574 6.10528C11.098 6.07293 11.0246 6.11482 11.0246 6.18154C11.0246 6.26004 11.0246 6.35158 11.0246 6.40833C11.0228 9.61531 10.9967 12.4388 11.0246 15.6455C11.0267 15.8824 11.2711 16.055 11.484 16.1778C13.8461 17.5402 15.7741 18.5549 18.1514 19.8918C18.8994 20.3124 19.3154 20.5433 19.5755 20.6457C19.625 20.6652 19.7647 20.7588 19.7982 20.6675C19.8033 20.6535 19.8036 20.6381 19.8036 20.6232C19.805 17.9608 19.8471 15.9533 19.8401 13.3845C19.8391 12.9851 19.5904 12.9668 19.2913 13.1124C18.8518 13.3265 18.4047 13.529 17.9807 13.7702C16.6414 14.5318 15.3467 14.4154 14.1619 13.3729C14.1322 13.3468 14.1242 13.3038 14.1426 13.2691C14.9685 11.7151 16.3505 10.6779 17.7734 9.64652C17.8255 9.60879 17.8201 9.53058 17.7635 9.49974C15.4303 8.22722 13.5035 7.38425 11.1574 6.10528ZM22.9144 15.2153C23.769 15.2058 24.618 14.3942 24.6135 13.5908C24.6083 12.6548 23.8197 11.8766 22.8804 11.8806C21.9519 11.8845 21.2167 12.629 21.2166 13.5656C21.2164 14.4936 21.9698 15.2256 22.9144 15.2153ZM28.0127 10.2347C27.2308 10.2473 26.5059 10.9848 26.5335 11.7394C26.5645 12.5855 27.2929 13.2799 28.1373 13.2683C28.9798 13.2568 29.6455 12.5716 29.6328 11.7291C29.62 10.881 28.9039 10.2204 28.0127 10.2347ZM16.2704 12.4643C16.2283 12.5162 16.2598 12.5927 16.3267 12.6019C17.8646 12.8128 18.8915 12.6812 19.4893 10.9226C19.5063 10.8724 19.474 10.8184 19.4217 10.806C19.1344 10.7376 18.8202 10.5992 18.6161 10.6929C17.7328 11.0991 16.936 11.6451 16.2704 12.4643Z" fill="url(#paint2_linear_75_1341)"/>
<path d="M14.409 24.9699L14.2965 24.9155L14.2965 24.9155L14.409 24.9699ZM15.4064 24.5783L15.35 24.6899L15.35 24.6899L15.4064 24.5783ZM16.3306 24.4083L16.4386 24.4712L16.4386 24.4712L16.3306 24.4083ZM16.7554 23.2782L16.8795 23.2929L16.8795 23.2929L16.7554 23.2782ZM15.7233 22.4881L15.7825 22.5982L15.7825 22.5982L15.7233 22.4881ZM14.0421 22.6368L13.9959 22.753L13.9959 22.753L14.0421 22.6368ZM11.9116 24.1312L11.7881 24.1122L11.7881 24.1122L11.9116 24.1312ZM11.244 24.7769L11.2486 24.652L11.2486 24.652L11.244 24.7769ZM10.6889 25.0178L10.7818 25.1014L10.7818 25.1014L10.6889 25.0178ZM9.71346 26.2819L9.82115 26.3453L9.82115 26.3453L9.71346 26.2819ZM9.81392 27.3862L9.74761 27.4921L9.74762 27.4922L9.81392 27.3862ZM11.0328 27.0077L11.1416 27.0691L11.1416 27.0691L11.0328 27.0077ZM24.8649 24.5783L24.9213 24.6899L24.9213 24.6899L24.8649 24.5783ZM23.9407 24.4083L23.8327 24.4712L23.8327 24.4712L23.9407 24.4083ZM23.5159 23.2782L23.3918 23.2929L23.3918 23.2929L23.5159 23.2782ZM24.548 22.4881L24.4888 22.5982L24.4888 22.5982L24.548 22.4881ZM26.2292 22.6368L26.2754 22.753L26.2754 22.753L26.2292 22.6368ZM28.3597 24.1312L28.4832 24.1122L28.4832 24.1122L28.3597 24.1312ZM29.0273 24.7769L29.0227 24.652L29.0227 24.652L29.0273 24.7769ZM29.5824 25.0178L29.4895 25.1014L29.4895 25.1014L29.5824 25.0178ZM30.5578 26.2819L30.4501 26.3453L30.4501 26.3453L30.5578 26.2819ZM30.4574 27.3862L30.5237 27.4921L30.5237 27.4921L30.4574 27.3862ZM29.2385 27.0077L29.1297 27.0691L29.1297 27.0691L29.2385 27.0077ZM28.8353 26.3446L28.7289 26.4102L28.8353 26.3446ZM25.1602 6.96985L25.0488 6.91317L25.0488 6.91319L25.1602 6.96985ZM26.2101 6.57832L26.156 6.691L26.156 6.69101L26.2101 6.57832ZM27.183 6.40833L27.2896 6.47361L27.2896 6.47361L27.183 6.40833ZM27.6301 5.2782L27.7542 5.29364V5.29364L27.6301 5.2782ZM26.5437 4.48809L26.6006 4.59939L26.6006 4.59939L26.5437 4.48809ZM24.774 4.63679L24.7299 4.75374L24.7299 4.75374L24.774 4.63679ZM22.5314 6.1312L22.408 6.1112L22.408 6.11121L22.5314 6.1312ZM21.8286 6.77694L21.8331 6.65202L21.833 6.65202L21.8286 6.77694ZM21.2443 7.01781L21.3351 7.10378L21.3351 7.10375L21.2443 7.01781ZM20.2176 8.28188L20.3238 8.34778L20.3238 8.34777L20.2176 8.28188ZM20.3233 9.38619L20.2594 9.49363L20.2594 9.49364L20.3233 9.38619ZM21.6063 9.00767L21.7138 9.07152L21.7138 9.0715L21.6063 9.00767ZM13.8384 26.1005C14.1352 25.799 14.343 25.3938 14.5216 25.0242L14.2965 24.9155C14.1168 25.2873 13.9245 25.6567 13.6603 25.9251L13.8384 26.1005ZM14.5216 25.0242C14.6541 24.7501 14.7571 24.6288 14.8607 24.5864C14.9581 24.5467 15.0964 24.5617 15.35 24.6899L15.4628 24.4668C15.2001 24.334 14.9722 24.2708 14.7662 24.355C14.5664 24.4366 14.4288 24.6416 14.2965 24.9155L14.5216 25.0242ZM15.35 24.6899C15.5345 24.7831 15.7377 24.8431 15.9326 24.8208C16.1352 24.7975 16.3133 24.6866 16.4386 24.4712L16.2225 24.3455C16.1344 24.497 16.0236 24.5587 15.9041 24.5724C15.7768 24.587 15.6247 24.5486 15.4628 24.4667L15.35 24.6899ZM16.4386 24.4712C16.6417 24.1221 16.8303 23.7086 16.8795 23.2929L16.6313 23.2635C16.588 23.6293 16.4189 24.0079 16.2225 24.3455L16.4386 24.4712ZM16.8795 23.2929C16.9251 22.9075 16.8136 22.5783 16.5772 22.3941C16.3369 22.2069 16.0024 22.196 15.6641 22.378L15.7825 22.5982C16.056 22.451 16.2797 22.4792 16.4235 22.5913C16.5712 22.7064 16.6699 22.9369 16.6312 23.2635L16.8795 23.2929ZM15.6641 22.378C15.3784 22.5317 15.1503 22.6295 14.9136 22.6597C14.6797 22.6895 14.4255 22.6547 14.0883 22.5206L13.9959 22.753C14.3609 22.898 14.6585 22.9442 14.9452 22.9077C15.2291 22.8715 15.4904 22.7553 15.7825 22.5982L15.6641 22.378ZM14.0883 22.5206C13.4918 22.2836 12.9603 22.3425 12.5519 22.6458C12.1491 22.945 11.8876 23.466 11.7881 24.1122L12.0352 24.1502C12.1286 23.5437 12.3685 23.0935 12.7009 22.8465C13.0277 22.6038 13.4649 22.5419 13.9959 22.753L14.0883 22.5206ZM11.7881 24.1122C11.7571 24.3133 11.7104 24.4478 11.6351 24.5314C11.5665 24.6076 11.4566 24.6598 11.2486 24.652L11.2393 24.9019C11.4953 24.9114 11.6875 24.8467 11.8209 24.6987C11.9476 24.558 12.0027 24.361 12.0352 24.1502L11.7881 24.1122ZM11.2486 24.652C11.1323 24.6477 11.0064 24.6785 10.8946 24.7272C10.7826 24.776 10.6741 24.8473 10.5959 24.9342L10.7818 25.1014C10.8307 25.047 10.907 24.9945 10.9944 24.9564C11.0821 24.9183 11.1702 24.8993 11.2393 24.9019L11.2486 24.652ZM10.596 24.9342C10.2404 25.3292 9.88223 25.7492 9.60576 26.2184L9.82115 26.3453C10.084 25.8992 10.4277 25.4949 10.7818 25.1014L10.596 24.9342ZM9.60577 26.2184C9.50307 26.3927 9.3902 26.614 9.37715 26.8405C9.37045 26.9569 9.38987 27.0763 9.45077 27.1906C9.51146 27.3045 9.60929 27.4056 9.74761 27.4921L9.88023 27.2802C9.77146 27.2122 9.7077 27.1411 9.67139 27.073C9.63527 27.0052 9.62225 26.9328 9.62674 26.8549C9.63606 26.6931 9.72006 26.5169 9.82115 26.3453L9.60577 26.2184ZM9.74762 27.4922C9.99834 27.649 10.2729 27.6813 10.5247 27.6009C10.7748 27.5211 10.9923 27.3337 11.1416 27.0691L10.9239 26.9462C10.8004 27.165 10.6294 27.305 10.4487 27.3627C10.2697 27.4199 10.0712 27.3997 9.88022 27.2802L9.74762 27.4922ZM11.1416 27.0691C11.2622 26.8555 11.3941 26.6506 11.5424 26.4102L11.3296 26.2789C11.1846 26.514 11.0476 26.7269 10.9239 26.9463L11.1416 27.0691ZM25.9748 24.9155C25.8425 24.6416 25.705 24.4366 25.5052 24.355C25.2991 24.2708 25.0712 24.334 24.8085 24.4667L24.9213 24.6899C25.1749 24.5617 25.3132 24.5466 25.4106 24.5864C25.5142 24.6288 25.6172 24.7501 25.7498 25.0242L25.9748 24.9155ZM24.8085 24.4667C24.6466 24.5486 24.4945 24.587 24.3673 24.5724C24.2478 24.5587 24.1369 24.497 24.0488 24.3455L23.8327 24.4712C23.958 24.6866 24.1361 24.7975 24.3387 24.8207C24.5336 24.8431 24.7368 24.7831 24.9213 24.6899L24.8085 24.4667ZM24.0488 24.3455C23.8524 24.0079 23.6833 23.6293 23.6401 23.2635L23.3918 23.2929C23.441 23.7086 23.6296 24.1221 23.8327 24.4712L24.0488 24.3455ZM23.6401 23.2635C23.6015 22.9369 23.7001 22.7064 23.8478 22.5913C23.9917 22.4792 24.2153 22.451 24.4888 22.5982L24.6072 22.378C24.269 22.196 23.9345 22.2068 23.6942 22.3941C23.4578 22.5783 23.3462 22.9075 23.3918 23.2929L23.6401 23.2635ZM24.4888 22.5982C24.7809 22.7553 25.0422 22.8714 25.3261 22.9077C25.6128 22.9442 25.9104 22.898 26.2754 22.753L26.1831 22.5206C25.8458 22.6547 25.5916 22.6895 25.3578 22.6597C25.121 22.6295 24.8929 22.5317 24.6072 22.378L24.4888 22.5982ZM26.2754 22.753C26.8064 22.5419 27.2437 22.6038 27.5704 22.8465C27.9028 23.0935 28.1427 23.5437 28.2361 24.1502L28.4832 24.1122C28.3837 23.466 28.1222 22.945 27.7194 22.6458C27.311 22.3425 26.7795 22.2836 26.183 22.5206L26.2754 22.753ZM28.2361 24.1502C28.2686 24.361 28.3237 24.558 28.4504 24.6987C28.5838 24.8467 28.776 24.9114 29.032 24.9019L29.0227 24.652C28.8147 24.6598 28.7048 24.6076 28.6362 24.5314C28.5609 24.4478 28.5142 24.3133 28.4832 24.1122L28.2361 24.1502ZM29.032 24.9019C29.1011 24.8993 29.1892 24.9183 29.2769 24.9564C29.3643 24.9945 29.4406 25.047 29.4895 25.1014L29.6754 24.9342C29.5972 24.8473 29.4887 24.776 29.3767 24.7272C29.2649 24.6785 29.139 24.6477 29.0227 24.652L29.032 24.9019ZM29.4895 25.1014C29.8436 25.4949 30.1873 25.8992 30.4501 26.3453L30.6655 26.2184C30.3891 25.7492 30.0309 25.3292 29.6753 24.9342L29.4895 25.1014ZM30.4501 26.3453C30.5512 26.5169 30.6352 26.6931 30.6446 26.8549C30.649 26.9327 30.636 27.0052 30.5999 27.073C30.5636 27.1411 30.4998 27.2121 30.3911 27.2802L30.5237 27.4921C30.662 27.4056 30.7598 27.3045 30.8205 27.1906C30.8814 27.0763 30.9008 26.9569 30.8941 26.8405C30.8811 26.614 30.7682 26.3927 30.6655 26.2184L30.4501 26.3453ZM30.3911 27.2802C30.2001 27.3997 30.0016 27.4198 29.8226 27.3627C29.6419 27.305 29.4708 27.165 29.3474 26.9462L29.1297 27.0691C29.279 27.3337 29.4965 27.5211 29.7466 27.6009C29.9984 27.6813 30.2729 27.649 30.5237 27.4921L30.3911 27.2802ZM29.3474 26.9462C29.2237 26.7269 29.0867 26.5139 28.9417 26.2789L28.7289 26.4102C28.8772 26.6506 29.0091 26.8555 29.1297 27.0691L29.3474 26.9462ZM28.7832 26.423C28.7653 26.4341 28.7404 26.4288 28.7289 26.4102L28.9417 26.2789C28.8796 26.1784 28.7494 26.1495 28.651 26.2108L28.7832 26.423ZM24.5526 8.10275C24.8648 7.8015 25.0836 7.39627 25.2717 7.02651L25.0488 6.91319C24.8599 7.28479 24.6574 7.65426 24.379 7.92285L24.5526 8.10275ZM25.2717 7.02653C25.4105 6.75355 25.5192 6.63074 25.6312 6.58725C25.739 6.54542 25.8891 6.56287 26.156 6.691L26.2642 6.46563C25.9877 6.33288 25.7523 6.27206 25.5407 6.3542C25.3334 6.43468 25.1888 6.63808 25.0488 6.91317L25.2717 7.02653ZM26.156 6.69101C26.3495 6.78387 26.5609 6.84283 26.7626 6.82083C26.9712 6.79806 27.1573 6.68953 27.2896 6.47361L27.0764 6.34305C26.9839 6.49411 26.8658 6.55808 26.7354 6.57231C26.598 6.58731 26.4354 6.54777 26.2642 6.46563L26.156 6.69101ZM27.2896 6.47361C27.5032 6.12466 27.7022 5.71057 27.7542 5.29364L27.5061 5.26275C27.4607 5.62741 27.2831 6.00539 27.0764 6.34306L27.2896 6.47361ZM27.7542 5.29364C27.8024 4.90559 27.6837 4.57561 27.436 4.39225C27.1866 4.2076 26.84 4.19627 26.4868 4.37679L26.6006 4.59939C26.8914 4.45074 27.1323 4.47847 27.2873 4.59318C27.4439 4.70918 27.5464 4.93884 27.5061 5.26276L27.7542 5.29364ZM26.4868 4.37678C26.186 4.53054 25.9444 4.62911 25.693 4.65958C25.444 4.68975 25.1743 4.65432 24.8182 4.51985L24.7299 4.75374C25.1129 4.89836 25.424 4.94401 25.723 4.90776C26.0196 4.87183 26.2932 4.7565 26.6006 4.59939L26.4868 4.37678ZM24.8182 4.51985C24.1937 4.28405 23.6388 4.34273 23.2117 4.64406C22.789 4.94233 22.513 5.46332 22.408 6.1112L22.6548 6.1512C22.7528 5.54639 23.0047 5.09611 23.3559 4.84832C23.7027 4.60359 24.1675 4.54141 24.7299 4.75374L24.8182 4.51985ZM22.408 6.11121C22.3756 6.31154 22.3267 6.44541 22.2474 6.52903C22.1739 6.6066 22.0551 6.65992 21.8331 6.65202L21.8242 6.90186C22.0905 6.91133 22.2898 6.84772 22.4288 6.70104C22.5622 6.5604 22.6205 6.36272 22.6548 6.15119L22.408 6.11121ZM21.833 6.65202C21.713 6.64779 21.5824 6.67802 21.4656 6.72631C21.3489 6.77461 21.2354 6.84538 21.1535 6.93188L21.3351 7.10375C21.387 7.04895 21.4681 6.99585 21.5612 6.95732C21.6544 6.91877 21.749 6.89921 21.8242 6.90187L21.833 6.65202ZM21.1536 6.93185C20.7794 7.3268 20.4024 7.74677 20.1113 8.216L20.3238 8.34777C20.6005 7.90169 20.9623 7.4973 21.3351 7.10378L21.1536 6.93185ZM20.1113 8.21599C20.0034 8.38995 19.884 8.61204 19.8701 8.84017C19.863 8.9577 19.8837 9.07815 19.9481 9.19295C20.0122 9.30709 20.1149 9.40772 20.2594 9.49363L20.3872 9.27874C20.2716 9.21002 20.2043 9.13852 20.1662 9.07063C20.1285 9.00341 20.115 8.93196 20.1197 8.8553C20.1294 8.69504 20.2172 8.51962 20.3238 8.34778L20.1113 8.21599ZM20.2594 9.49364C20.7927 9.81057 21.3969 9.60485 21.7138 9.07152L21.4988 8.94383C21.2414 9.37716 20.7838 9.51448 20.3872 9.27873L20.2594 9.49364ZM21.7138 9.0715C21.8406 8.85789 21.9794 8.65309 22.1356 8.41267L21.9259 8.2765C21.7733 8.51148 21.6291 8.72449 21.4988 8.94384L21.7138 9.0715ZM12.3957 30.6822L12.2159 30.8559L12.3957 30.6822ZM12.3957 31.7745L12.5217 31.9905L12.5515 31.9731L12.5754 31.9483L12.3957 31.7745ZM11.5511 31.8698L11.6084 31.6265L11.6083 31.6264L11.5511 31.8698ZM11.1289 31.2077L10.8792 31.2201V31.2201L11.1289 31.2077ZM11.7623 30.4637L11.825 30.7057L11.8462 30.7002L11.8662 30.6911L11.7623 30.4637ZM17.2518 29.1529L17.0843 29.3384L17.1022 29.3546L17.1228 29.367L17.2518 29.1529ZM17.463 29.8244H17.713H17.463ZM16.8296 30.2452V30.4952V30.2452ZM16.1335 29.5898L16.3809 29.6263L16.3809 29.6262L16.1335 29.5898ZM16.6184 28.9344L16.7125 29.166L16.6184 28.9344ZM13.8564 20.3187L13.9763 20.0993L13.8564 20.3187ZM18.3075 22.8171L18.1829 23.0338L18.1829 23.0339L18.3075 22.8171ZM19.1349 24.108L18.8849 24.1024L19.1349 24.108ZM19.1087 34.153L19.3587 34.1523L19.3586 34.1523L19.1087 34.153ZM18.7192 34.9345L18.8407 35.153L18.8407 35.153L18.7192 34.9345ZM9.99524 39.8167L9.87386 39.5981L9.8738 39.5981L9.99524 39.8167ZM9.32018 39.8581L9.44637 39.6423L9.44635 39.6422L9.32018 39.8581ZM0.46163 34.6028L0.332793 34.817L0.332824 34.8171L0.46163 34.6028ZM0.149717 34.0432L-0.100279 34.0446L0.149717 34.0432ZM0.15079 23.5714L0.400785 23.5728L0.400786 23.5728L0.15079 23.5714ZM0.486249 22.9754L0.35466 22.7628L0.354633 22.7628L0.486249 22.9754ZM6.69497 19.3216L6.5641 19.1086H6.5641L6.69497 19.3216ZM0.980169 24.4083L1.23017 24.4085V24.4084L0.980169 24.4083ZM0.980169 33.6455L1.23016 33.6435L1.23016 33.6435L0.980169 33.6455ZM1.41654 34.1778L1.54628 33.9641L1.54628 33.9641L1.41654 34.1778ZM7.75066 37.8918L7.87801 37.6767L7.75066 37.8918ZM9.35491 31.3845L9.10491 31.3852V31.3852L9.35491 31.3845ZM8.83354 31.1124L8.94757 31.3349L8.94759 31.3349L8.83354 31.1124ZM7.58844 31.7702L7.71684 31.9847L7.71687 31.9847L7.58844 31.7702ZM12.2754 33.2153L12.2783 33.4653H12.2783L12.2754 33.2153ZM13.8896 31.5908L14.1396 31.5895V31.5895L13.8896 31.5908ZM12.2432 29.8806L12.2443 30.1306H12.2443L12.2432 29.8806ZM10.6625 31.5656L10.9125 31.5656V31.5656L10.6625 31.5656ZM17.1188 28.2347L17.1146 27.9848H17.1146L17.1188 28.2347ZM15.7136 29.7394L15.4637 29.748L15.4637 29.7481L15.7136 29.7394ZM17.2372 31.2683L17.2336 31.0184H17.2336L17.2372 31.2683ZM18.6579 29.7291L18.4079 29.7327L18.4079 29.7327L18.6579 29.7291ZM8.1921 28.6929L8.08327 28.4679L8.08317 28.4679L8.1921 28.6929ZM9.02162 28.9226L9.25953 28.9994L9.02162 28.9226ZM8.9574 28.806L8.89667 29.0485L8.9574 28.806ZM7.39152 27.6465L7.54317 27.8453L7.39152 27.6465ZM7.38214 27.4997L7.50661 27.2829L7.38214 27.4997ZM3.96058 31.3729L3.7907 31.5563L3.96058 31.3729ZM3.94229 31.2691L3.71913 31.1564L3.94229 31.2691ZM9.10355 38.6457L9.19926 38.4148L9.10355 38.6457ZM6.01714 30.6019L6.05286 30.3544L6.01714 30.6019ZM5.96369 30.4643L6.16158 30.617L5.96369 30.4643ZM0.980188 24.1815L0.730188 24.1816L0.980188 24.1815ZM1.10627 24.1053L1.23069 23.8884L1.10627 24.1053ZM9.32019 38.6243L9.57019 38.6244L9.32019 38.6243ZM9.31541 38.6665L9.55241 38.7461L9.31541 38.6665ZM9.97078 18.3079L10.0856 18.0858L9.97078 18.3079ZM8.4393 18.2833L8.31979 18.0637L8.4393 18.2833ZM27.8756 30.6822L28.0554 30.8559L27.8756 30.6822ZM27.8756 31.7745L27.6959 31.9483L27.7198 31.9731L27.7496 31.9905L27.8756 31.7745ZM28.7202 31.8698L28.663 31.6264L28.6629 31.6265L28.7202 31.8698ZM29.1424 31.2077L29.3921 31.2201V31.2201L29.1424 31.2077ZM28.509 30.4637L28.4051 30.6911L28.4251 30.7002L28.4463 30.7057L28.509 30.4637ZM23.0195 29.1529L23.1485 29.367L23.1692 29.3546L23.187 29.3384L23.0195 29.1529ZM22.8084 29.8244H22.5584H22.8084ZM23.4418 30.2452V30.4952V30.2452ZM24.1378 29.5898L23.8905 29.6262L23.8905 29.6262L24.1378 29.5898ZM23.6529 28.9344L23.5588 29.166L23.6529 28.9344ZM26.4149 20.3187L26.295 20.0993L26.4149 20.3187ZM21.9638 22.8171L22.0885 23.0338L22.0885 23.0338L21.9638 22.8171ZM21.1365 24.108L21.3864 24.1024L21.1365 24.108ZM21.1627 34.153L20.9127 34.1523L20.9127 34.1523L21.1627 34.153ZM21.5522 34.9345L21.4306 35.153L21.4307 35.153L21.5522 34.9345ZM30.2761 39.8167L30.3975 39.5981L30.3974 39.5981L30.2761 39.8167ZM30.9511 39.8581L30.8249 39.6422L30.8249 39.6422L30.9511 39.8581ZM39.8096 34.6028L39.9384 34.8171L39.9385 34.817L39.8096 34.6028ZM40.1215 34.0432L40.3715 34.0446L40.1215 34.0432ZM40.1205 23.5714L39.8705 23.5728V23.5728L40.1205 23.5714ZM39.785 22.9754L39.9166 22.7628L39.9166 22.7628L39.785 22.9754ZM33.5763 19.3216L33.4454 19.5346L33.5763 19.3216ZM39.2911 24.4083L39.0411 24.4084V24.4085L39.2911 24.4083ZM39.2911 33.6455L39.0411 33.6435V33.6435L39.2911 33.6455ZM38.8547 34.1778L38.725 33.9641L38.725 33.9641L38.8547 34.1778ZM32.5206 37.8918L32.3933 37.6767L32.5206 37.8918ZM30.9164 31.3845L31.1664 31.3852V31.3852L30.9164 31.3845ZM31.4377 31.1124L31.3237 31.3349L31.3237 31.3349L31.4377 31.1124ZM32.6828 31.7702L32.5544 31.9847L32.5544 31.9847L32.6828 31.7702ZM27.9959 33.2153L27.993 33.4652H27.993L27.9959 33.2153ZM26.3817 31.5908L26.1317 31.5895V31.5895L26.3817 31.5908ZM28.0281 29.8806L28.027 30.1306H28.027L28.0281 29.8806ZM29.6088 31.5656L29.3588 31.5656V31.5656L29.6088 31.5656ZM23.1525 28.2347L23.1567 27.9848H23.1567L23.1525 28.2347ZM24.5578 29.7394L24.8076 29.7481V29.748L24.5578 29.7394ZM23.0341 31.2683L23.0377 31.0184H23.0377L23.0341 31.2683ZM21.6134 29.7291L21.8634 29.7327L21.8634 29.7327L21.6134 29.7291ZM32.0792 28.6929L32.1881 28.4679L32.188 28.4678L32.0792 28.6929ZM31.2497 28.9226L31.0118 28.9994L31.2497 28.9226ZM31.3139 28.8059L31.3746 29.0485L31.3139 28.8059ZM32.8798 27.6465L32.7281 27.8453L32.8798 27.6465ZM32.8891 27.4997L33.0136 27.7165L32.8891 27.4997ZM36.3107 31.3729L36.4806 31.5563L36.3107 31.3729ZM36.329 31.269L36.1058 31.3817L36.329 31.269ZM31.1677 38.6457L31.2634 38.8767L31.1677 38.6457ZM34.2541 30.6019L34.2899 30.8493L34.2541 30.6019ZM34.3076 30.4643L34.1097 30.617L34.3076 30.4643ZM39.2911 24.1815L39.5411 24.1816L39.2911 24.1815ZM39.165 24.1053L39.0406 23.8884L39.165 24.1053ZM30.9511 38.6243L31.2011 38.6241L30.9511 38.6243ZM30.9559 38.6665L31.1929 38.5869L30.9559 38.6665ZM30.3005 18.3079L30.4153 18.53L30.3005 18.3079ZM31.832 18.2833L31.7125 18.5029L31.832 18.2833ZM23.0409 12.6822L22.8657 12.8605L23.0409 12.6822ZM23.0409 13.7745L23.1621 13.9932L23.1919 13.9767L23.2162 13.9528L23.0409 13.7745ZM22.1519 13.8698L22.2065 13.6258L22.2064 13.6258L22.1519 13.8698ZM21.7074 13.2077L21.4578 13.2207L21.4578 13.2208L21.7074 13.2077ZM22.3742 12.4637L22.434 12.7064L22.4544 12.7014L22.4737 12.693L22.3742 12.4637ZM28.1527 11.1529L27.9899 11.3426L28.0079 11.3581L28.0285 11.3698L28.1527 11.1529ZM28.3749 11.8244H28.6249H28.3749ZM27.7082 12.2452V12.4952V12.2452ZM26.9755 11.5898L27.2226 11.6281L27.2226 11.6281L26.9755 11.5898ZM27.4859 10.9344L27.576 11.1676L27.4859 10.9344ZM24.5786 2.31866L24.6938 2.09677L24.5786 2.31866ZM29.2639 4.81715L29.144 5.03652L29.144 5.03653L29.2639 4.81715ZM30.1348 6.10796L29.8849 6.10208V6.10208L30.1348 6.10796ZM30.1072 16.153L30.3572 16.1523V16.1523L30.1072 16.153ZM29.6972 16.9345L29.814 17.1555L29.8141 17.1555L29.6972 16.9345ZM20.5142 21.8167L20.3975 21.5956L20.3974 21.5956L20.5142 21.8167ZM19.8036 21.8581L19.925 21.6395L19.925 21.6395L19.8036 21.8581ZM10.4788 16.6028L10.3548 16.8199L10.3548 16.8199L10.4788 16.6028ZM10.1505 16.0432L9.90046 16.0446L10.1505 16.0432ZM10.1516 5.57137L10.4016 5.57291L10.4016 5.57283L10.1516 5.57137ZM10.5047 4.97539L10.378 4.75989L10.3779 4.75991L10.5047 4.97539ZM17.0402 1.32157L17.1662 1.53749L17.0402 1.32157ZM11.0246 6.40833L11.2746 6.40848V6.40845L11.0246 6.40833ZM11.0246 15.6455L11.2746 15.6434V15.6433L11.0246 15.6455ZM11.484 16.1778L11.6089 15.9612L11.6089 15.9612L11.484 16.1778ZM18.1514 19.8918L18.274 19.6739L18.1514 19.8918ZM19.8401 13.3845L19.5901 13.3852V13.3852L19.8401 13.3845ZM19.2913 13.1124L19.4008 13.3372L19.4008 13.3372L19.2913 13.1124ZM17.9807 13.7702L18.1043 13.9875L18.1043 13.9875L17.9807 13.7702ZM22.9144 15.2153L22.9171 15.4653H22.9171L22.9144 15.2153ZM24.6135 13.5908L24.8635 13.5895V13.5894L24.6135 13.5908ZM22.8804 11.8806L22.8815 12.1306H22.8815L22.8804 11.8806ZM21.2166 13.5656L21.4666 13.5656V13.5656L21.2166 13.5656ZM28.0127 10.2347L28.0087 9.98477H28.0087L28.0127 10.2347ZM26.5335 11.7394L26.2836 11.7485L26.2836 11.7485L26.5335 11.7394ZM28.1373 13.2683L28.1339 13.0184H28.1339L28.1373 13.2683ZM29.6328 11.7291L29.3828 11.7329V11.7329L29.6328 11.7291ZM18.6161 10.6929L18.5118 10.4657L18.5117 10.4658L18.6161 10.6929ZM19.4893 10.9226L19.726 11.003L19.4893 10.9226ZM19.4217 10.806L19.3638 11.0492L19.4217 10.806ZM17.7734 9.64652L17.9201 9.84894L17.7734 9.64652ZM17.7635 9.49974L17.6438 9.71922L17.7635 9.49974ZM14.1619 13.3729L13.9967 13.5606L14.1619 13.3729ZM14.1426 13.2691L13.9219 13.1517L14.1426 13.2691ZM19.5755 20.6457L19.484 20.8784L19.5755 20.6457ZM16.3267 12.6019L16.3607 12.3542L16.3267 12.6019ZM16.2704 12.4643L16.4644 12.6219L16.2704 12.4643ZM11.0246 6.18154L10.7746 6.18156L11.0246 6.18154ZM11.1574 6.10528L11.0377 6.32478L11.1574 6.10528ZM19.8036 20.6232L20.0536 20.6233L19.8036 20.6232ZM19.7982 20.6675L19.5635 20.5814L19.7982 20.6675ZM20.4189 0.273761L20.5291 0.0493495L20.4189 0.273761ZM18.9467 0.247184L18.833 0.0244997L18.9467 0.247184ZM12.2159 30.8559C12.2285 30.869 12.253 30.9066 12.2735 30.9808C12.293 31.0514 12.304 31.1379 12.304 31.2284C12.304 31.3188 12.293 31.4053 12.2735 31.4759C12.253 31.5501 12.2285 31.5878 12.2159 31.6008L12.5754 31.9483C12.6684 31.8521 12.7231 31.7259 12.7554 31.609C12.7887 31.4884 12.804 31.3564 12.804 31.2284C12.804 31.1004 12.7887 30.9683 12.7554 30.8478C12.7231 30.7308 12.6684 30.6046 12.5754 30.5084L12.2159 30.8559ZM12.2697 31.5586C12.1186 31.6468 11.905 31.6963 11.6084 31.6265L11.4939 32.1132C11.9041 32.2097 12.2505 32.1487 12.5217 31.9905L12.2697 31.5586ZM11.6083 31.6264C11.6111 31.6271 11.5964 31.6238 11.5673 31.5968C11.5396 31.5711 11.5086 31.5327 11.4789 31.4835C11.4173 31.3813 11.3822 31.268 11.3785 31.1953L10.8792 31.2201C10.8878 31.3944 10.9576 31.5872 11.0508 31.7418C11.1377 31.8859 11.2862 32.0644 11.494 32.1132L11.6083 31.6264ZM11.3785 31.1953C11.3787 31.1981 11.379 31.1723 11.4029 31.1165C11.4247 31.0656 11.4593 31.0058 11.5051 30.9464C11.6007 30.8225 11.7187 30.7333 11.825 30.7057L11.6995 30.2217C11.4469 30.2872 11.2432 30.4674 11.1092 30.641C11.0403 30.7304 10.9832 30.8263 10.9433 30.9197C10.9054 31.0081 10.8739 31.1148 10.8792 31.2201L11.3785 31.1953ZM11.8662 30.6911C11.9159 30.6684 11.9626 30.6715 12.0246 30.7027C12.0939 30.7375 12.1594 30.7974 12.2159 30.8559L12.5754 30.5084C12.5118 30.4426 12.3978 30.3306 12.2491 30.2559C12.0931 30.1775 11.8832 30.1336 11.6584 30.2363L11.8662 30.6911ZM17.1228 29.367C17.1498 29.3833 17.1772 29.4153 17.195 29.5011C17.2139 29.5924 17.213 29.6977 17.213 29.8244H17.713C17.713 29.7165 17.7163 29.5523 17.6846 29.3995C17.6517 29.2412 17.5735 29.0548 17.3809 28.9387L17.1228 29.367ZM17.213 29.8244C17.213 29.9183 17.1903 29.9306 17.1808 29.9373C17.1478 29.9605 17.0558 29.9952 16.8296 29.9952V30.4952C17.0785 30.4952 17.3033 30.4623 17.4682 30.3464C17.6566 30.2141 17.713 30.016 17.713 29.8244H17.213ZM16.8296 29.9952C16.7522 29.9952 16.6354 29.9337 16.5208 29.8062C16.4684 29.7479 16.4279 29.688 16.4032 29.6401C16.3908 29.6161 16.3846 29.5995 16.3821 29.5909C16.3783 29.5781 16.3856 29.5938 16.3809 29.6263L15.8862 29.5534C15.8759 29.623 15.8893 29.6871 15.9019 29.7304C15.9157 29.778 15.9361 29.8253 15.959 29.8698C16.005 29.9588 16.0707 30.0534 16.1489 30.1404C16.2954 30.3034 16.5376 30.4952 16.8296 30.4952V29.9952ZM16.3809 29.6262C16.3983 29.5075 16.421 29.4228 16.4635 29.3544C16.5022 29.2921 16.5694 29.2241 16.7125 29.166L16.5243 28.7028C16.2966 28.7953 16.1403 28.927 16.0387 29.0906C15.9409 29.2482 15.9065 29.4158 15.8862 29.5534L16.3809 29.6262ZM16.7125 29.166C16.6807 29.1789 16.6596 29.1775 16.6669 29.1775C16.6694 29.1774 16.6788 29.1777 16.696 29.1802C16.7301 29.1852 16.7776 29.1962 16.8311 29.2134C16.9457 29.2503 17.0424 29.3006 17.0843 29.3384L17.4194 28.9673C17.2996 28.8592 17.1238 28.7823 16.9842 28.7374C16.9106 28.7138 16.8356 28.6953 16.7679 28.6854C16.7342 28.6805 16.6979 28.6771 16.6619 28.6775C16.6306 28.6778 16.5782 28.6809 16.5243 28.7028L16.7125 29.166ZM9.856 18.53C10.5044 18.8651 11.4562 19.3571 12.2557 19.7706C12.6554 19.9774 13.0171 20.1645 13.2836 20.3026C13.4169 20.3717 13.5263 20.4285 13.6049 20.4693C13.6442 20.4897 13.6756 20.5061 13.6984 20.518C13.7098 20.5239 13.7189 20.5287 13.7256 20.5322C13.729 20.534 13.7316 20.5354 13.7337 20.5365C13.7358 20.5377 13.7366 20.5381 13.7365 20.538L13.9763 20.0993C13.8946 20.0546 11.3792 18.7544 10.0856 18.0858L9.856 18.53ZM13.7365 20.538C16.7077 22.1615 15.3322 21.394 18.1829 23.0338L18.4322 22.6004C15.5793 20.9593 16.9515 21.725 13.9763 20.0993L13.7365 20.538ZM18.1829 23.0339C18.4873 23.209 18.6469 23.3063 18.7463 23.4379C18.8338 23.5538 18.8933 23.7264 18.8849 24.1024L19.3848 24.1135C19.3943 23.6879 19.3307 23.3822 19.1453 23.1366C18.9718 22.9068 18.7088 22.7596 18.4322 22.6004L18.1829 23.0339ZM18.8849 24.1024C18.81 27.4534 18.8489 30.8082 18.8587 34.1538L19.3586 34.1523C19.3489 30.8008 19.3101 27.4562 19.3848 24.1135L18.8849 24.1024ZM18.8587 34.1537C18.8591 34.3232 18.8456 34.4278 18.8119 34.506C18.7827 34.5737 18.7288 34.643 18.5976 34.716L18.8407 35.153C19.0487 35.0372 19.1901 34.8918 19.2711 34.7039C19.3476 34.5265 19.3592 34.3347 19.3587 34.1523L18.8587 34.1537ZM18.5976 34.716C15.675 36.3415 12.7949 37.9759 9.87386 39.5981L10.1166 40.0352C13.0216 38.4219 15.9392 36.7666 18.8407 35.153L18.5976 34.716ZM9.8738 39.5981C9.81909 39.6286 9.72864 39.6558 9.63196 39.6634C9.5299 39.6714 9.46697 39.6543 9.44637 39.6423L9.19399 40.0739C9.34143 40.1601 9.52386 40.1735 9.67124 40.1619C9.824 40.1498 9.98706 40.1072 10.1167 40.0352L9.8738 39.5981ZM9.44635 39.6422C6.48385 37.9105 3.53288 36.1574 0.590437 34.3885L0.332824 34.8171C3.27675 36.5868 6.2295 38.3409 9.19401 40.0739L9.44635 39.6422ZM0.590467 34.3885C0.562092 34.3715 0.510966 34.3201 0.464741 34.2371C0.418911 34.1549 0.399922 34.0809 0.399714 34.0419L-0.100279 34.0446C-0.0994664 34.1967 -0.0421239 34.3547 0.0279341 34.4804C0.0975975 34.6055 0.201918 34.7383 0.332793 34.817L0.590467 34.3885ZM0.399714 34.0419C0.381076 30.5522 0.380412 27.0624 0.400785 23.5728L-0.0992061 23.5699C-0.119591 27.0615 -0.118926 30.5531 -0.100279 34.0446L0.399714 34.0419ZM0.400786 23.5728C0.401029 23.5286 0.422362 23.4486 0.472647 23.3597C0.522906 23.2708 0.580679 23.211 0.617865 23.1879L0.354633 22.7628C0.221434 22.8453 0.112038 22.9817 0.0374447 23.1135C-0.0371217 23.2454 -0.0983266 23.4106 -0.0992066 23.57L0.400786 23.5728ZM0.617837 23.188C1.91487 22.385 2.77753 21.895 3.66054 21.3942C4.54492 20.8926 5.4496 20.3801 6.82584 19.5346L6.5641 19.1086C5.19556 19.9494 4.29705 20.4583 3.41386 20.9593C2.5293 21.461 1.65999 21.9548 0.35466 22.7628L0.617837 23.188ZM6.82584 19.5346C7.06992 19.3846 7.878 18.8734 8.55881 18.5029L8.31979 18.0637C7.62392 18.4424 6.79896 18.9643 6.5641 19.1086L6.82584 19.5346ZM0.730188 24.1816C0.730194 24.2601 0.730194 24.3515 0.730169 24.4082L1.23017 24.4084C1.23019 24.3516 1.23019 24.26 1.23019 24.1815L0.730188 24.1816ZM0.730169 24.4082C0.728434 27.6126 0.703658 30.4394 0.730177 33.6476L1.23016 33.6435C1.20366 30.4381 1.22843 27.618 1.23017 24.4085L0.730169 24.4082ZM0.730177 33.6476C0.731859 33.8528 0.834147 34.0129 0.941882 34.1265C1.04894 34.2394 1.18069 34.327 1.2868 34.3915L1.54628 33.9641C1.45019 33.9057 1.36472 33.8457 1.30463 33.7824C1.24522 33.7198 1.23042 33.6751 1.23016 33.6435L0.730177 33.6476ZM1.2868 34.3915C3.53007 35.7534 5.37428 36.7756 7.62331 38.1069L7.87801 37.6767C5.61008 36.3342 3.79105 35.3269 1.54628 33.9641L1.2868 34.3915ZM7.62331 38.1069C8.32484 38.5222 8.73989 38.7657 9.00784 38.8767L9.19926 38.4148C8.97298 38.321 8.59749 38.1026 7.87801 37.6767L7.62331 38.1069ZM9.57019 38.6244C9.57147 35.9734 9.61148 33.9472 9.60491 31.3839L9.10491 31.3852C9.11151 33.9601 9.07148 35.9494 9.07019 38.6242L9.57019 38.6244ZM9.60491 31.3839C9.60432 31.1506 9.53286 30.9038 9.28984 30.8106C9.08755 30.7331 8.87011 30.8127 8.71949 30.89L8.94759 31.3349C9.00582 31.305 9.05157 31.289 9.08413 31.2824C9.11751 31.2757 9.12211 31.2818 9.11091 31.2775C9.09295 31.2706 9.0858 31.2575 9.08765 31.2613C9.09254 31.2715 9.10471 31.3068 9.10491 31.3852L9.60491 31.3839ZM8.71951 30.89C8.31046 31.0996 7.87225 31.3089 7.46002 31.5557L7.71687 31.9847C8.11029 31.7491 8.52145 31.5533 8.94757 31.3349L8.71951 30.89ZM7.46004 31.5557C6.85966 31.9151 6.28786 32.0568 5.74575 31.9995C5.20354 31.9422 4.66296 31.6827 4.13046 31.1895L3.7907 31.5563C4.38374 32.1056 5.02092 32.4256 5.69317 32.4967C6.36552 32.5678 7.04489 32.3869 7.71684 31.9847L7.46004 31.5557ZM4.16546 31.3817C4.92074 29.8859 6.18726 28.8798 7.54317 27.8453L7.23987 27.4478C5.89232 28.4759 4.53305 29.5444 3.71913 31.1564L4.16546 31.3817ZM7.50661 27.2829C6.39345 26.6439 5.37755 26.1129 4.36463 25.5834C3.351 25.0535 2.3403 24.5252 1.23069 23.8884L0.981842 24.3221C2.10112 24.9644 3.12006 25.497 4.133 26.0265C5.14664 26.5563 6.15424 27.0831 7.25767 27.7165L7.50661 27.2829ZM12.2783 33.4653C12.7644 33.4596 13.2285 33.2165 13.5659 32.877C13.9032 32.5376 14.1422 32.0732 14.1396 31.5895L13.6396 31.5922C13.6413 31.9118 13.4792 32.2549 13.2113 32.5246C12.9435 32.794 12.5983 32.9615 12.2725 32.9653L12.2783 33.4653ZM14.1396 31.5895C14.1339 30.5269 13.2835 29.6259 12.2421 29.6306L12.2443 30.1306C12.9875 30.1273 13.6353 30.7827 13.6396 31.5922L14.1396 31.5895ZM12.2421 29.6306C11.2085 29.6352 10.4127 30.5056 10.4125 31.5655L10.9125 31.5656C10.9127 30.7524 11.5136 30.1338 12.2443 30.1306L12.2421 29.6306ZM10.4125 31.5655C10.4124 32.6247 11.2339 33.4773 12.2783 33.4653L12.2725 32.9653C11.5224 32.9739 10.9124 32.3625 10.9125 31.5656L10.4125 31.5655ZM17.1146 27.9848C16.6624 27.9924 16.2434 28.2188 15.9451 28.5382C15.6467 28.8577 15.4479 29.2928 15.4637 29.748L15.9634 29.7307C15.953 29.4313 16.0855 29.1204 16.3105 28.8794C16.5357 28.6383 16.8325 28.4896 17.1231 28.4847L17.1146 27.9848ZM15.4637 29.7481C15.4975 30.7177 16.2904 31.532 17.2408 31.5183L17.2336 31.0184C16.5796 31.0278 15.9886 30.4532 15.9634 29.7307L15.4637 29.7481ZM17.2408 31.5183C18.1911 31.5046 18.9218 30.6938 18.9079 29.7256L18.4079 29.7327C18.4182 30.4494 17.884 31.009 17.2336 31.0184L17.2408 31.5183ZM18.9079 29.7256C18.8938 28.7395 18.1 27.9681 17.1146 27.9848L17.123 28.4847C17.831 28.4728 18.3978 29.0225 18.4079 29.7327L18.9079 29.7256ZM5.98142 30.8493C6.71512 30.9552 7.38885 30.9872 7.95783 30.7284C8.54338 30.4619 8.96369 29.9154 9.25953 28.9994L8.78372 28.8457C8.51161 29.6883 8.16019 30.087 7.75075 30.2732C7.32474 30.4671 6.7802 30.4594 6.05286 30.3544L5.98142 30.8493ZM9.01812 28.5634C8.95723 28.5482 8.89395 28.5288 8.82271 28.5071C8.75422 28.4863 8.67793 28.4632 8.60257 28.4454C8.46357 28.4125 8.26432 28.3803 8.08327 28.4679L8.30092 28.918C8.3137 28.9118 8.36063 28.902 8.48757 28.932C8.54519 28.9456 8.60682 28.964 8.67713 28.9854C8.74469 29.006 8.82108 29.0295 8.89667 29.0485L9.01812 28.5634ZM8.08317 28.4679C7.21629 28.8875 6.42618 29.456 5.76579 30.3115L6.16158 30.617C6.76587 29.8342 7.48963 29.3107 8.30102 28.9179L8.08317 28.4679ZM9.25953 28.9994C9.32038 28.811 9.20743 28.6108 9.01812 28.5634L8.89667 29.0485C8.80665 29.0259 8.75524 28.9339 8.78372 28.8457L9.25953 28.9994ZM7.54317 27.8453C7.73424 27.6995 7.71583 27.403 7.50661 27.2829L7.25767 27.7165C7.15589 27.6581 7.1477 27.5181 7.23987 27.4478L7.54317 27.8453ZM4.13046 31.1895C4.18512 31.2401 4.19751 31.3183 4.16546 31.3817L3.71913 31.1564C3.65199 31.2893 3.67959 31.4534 3.7907 31.5563L4.13046 31.1895ZM9.00784 38.8767C9.00681 38.8763 9.00426 38.8753 9.03755 38.8925C9.05927 38.9037 9.0956 38.9219 9.13649 38.9355C9.17174 38.9473 9.2456 38.9681 9.33022 38.9492C9.43987 38.9248 9.51896 38.8457 9.55241 38.7461L9.07841 38.5869C9.08522 38.5667 9.09976 38.5374 9.12867 38.5104C9.15824 38.4828 9.19191 38.4678 9.22132 38.4612C9.24857 38.4552 9.26952 38.4568 9.27934 38.458C9.28472 38.4587 9.28864 38.4596 9.29088 38.4601C9.29315 38.4607 9.29437 38.4611 9.29441 38.4611C9.29448 38.4611 9.2938 38.4609 9.29232 38.4603C9.29084 38.4597 9.28886 38.4589 9.2863 38.4577C9.28101 38.4553 9.27472 38.4522 9.26674 38.4481C9.2528 38.4409 9.25637 38.4426 9.23999 38.4341C9.23166 38.4298 9.21601 38.4217 9.19926 38.4148L9.00784 38.8767ZM6.05286 30.3544C6.18762 30.3739 6.23295 30.5246 6.16158 30.617L5.76579 30.3115C5.61433 30.5077 5.71954 30.8115 5.98142 30.8493L6.05286 30.3544ZM1.23019 24.1815C1.2302 24.2949 1.10248 24.3913 0.981842 24.3221L1.23069 23.8884C0.997292 23.7545 0.730169 23.9347 0.730188 24.1816L1.23019 24.1815ZM9.07019 38.6242C9.07019 38.6311 9.07003 38.6285 9.07047 38.6236C9.07096 38.618 9.07255 38.6044 9.07841 38.5869L9.55241 38.7461C9.57167 38.6887 9.57019 38.635 9.57019 38.6244L9.07019 38.6242ZM10.0856 18.0858C9.53965 17.8036 8.88542 17.7559 8.31979 18.0637L8.55881 18.5029C8.95382 18.2879 9.43031 18.31 9.856 18.53L10.0856 18.0858ZM27.6959 30.5084C27.6029 30.6046 27.5482 30.7308 27.5159 30.8478C27.4826 30.9683 27.4673 31.1004 27.4673 31.2284C27.4673 31.3564 27.4826 31.4884 27.5159 31.6089C27.5482 31.7259 27.6029 31.8521 27.6959 31.9483L28.0554 31.6008C28.0428 31.5878 28.0183 31.5501 27.9978 31.4759C27.9783 31.4053 27.9673 31.3188 27.9673 31.2284C27.9673 31.1379 27.9783 31.0514 27.9978 30.9808C28.0183 30.9066 28.0428 30.869 28.0554 30.8559L27.6959 30.5084ZM27.7496 31.9905C28.0208 32.1487 28.3672 32.2097 28.7774 32.1132L28.6629 31.6265C28.3663 31.6963 28.1527 31.6468 28.0016 31.5586L27.7496 31.9905ZM28.7773 32.1132C28.9851 32.0644 29.1336 31.8859 29.2205 31.7418C29.3137 31.5872 29.3835 31.3944 29.3921 31.2201L28.8927 31.1953C28.8891 31.268 28.854 31.3813 28.7924 31.4835C28.7627 31.5327 28.7317 31.5711 28.704 31.5968C28.6749 31.6238 28.6602 31.6271 28.663 31.6264L28.7773 32.1132ZM29.3921 31.2201C29.3974 31.1148 29.3659 31.0081 29.328 30.9197C29.2881 30.8263 29.231 30.7304 29.1621 30.641C29.0281 30.4674 28.8244 30.2872 28.5718 30.2217L28.4463 30.7057C28.5526 30.7332 28.6706 30.8225 28.7662 30.9464C28.812 31.0058 28.8466 31.0656 28.8684 31.1165C28.8923 31.1722 28.8926 31.1981 28.8927 31.1953L29.3921 31.2201ZM28.6129 30.2363C28.3881 30.1336 28.1782 30.1775 28.0222 30.2559C27.8735 30.3305 27.7595 30.4425 27.6959 30.5084L28.0554 30.8559C28.1119 30.7974 28.1774 30.7375 28.2467 30.7027C28.3087 30.6715 28.3554 30.6684 28.4051 30.6911L28.6129 30.2363ZM22.8905 28.9387C22.6978 29.0548 22.6196 29.2412 22.5868 29.3995C22.5551 29.5523 22.5584 29.7165 22.5584 29.8244H23.0584C23.0584 29.6977 23.0574 29.5924 23.0763 29.5011C23.0941 29.4153 23.1215 29.3833 23.1485 29.367L22.8905 28.9387ZM22.5584 29.8244C22.5584 30.016 22.6148 30.2141 22.8031 30.3464C22.9681 30.4623 23.1928 30.4952 23.4418 30.4952V29.9952C23.2155 29.9952 23.1235 29.9605 23.0906 29.9373C23.081 29.9306 23.0584 29.9183 23.0584 29.8244H22.5584ZM23.4418 30.4952C23.7337 30.4952 23.9759 30.3034 24.1224 30.1404C24.2006 30.0534 24.2663 29.9588 24.3123 29.8698C24.3353 29.8253 24.3556 29.778 24.3694 29.7304C24.382 29.6871 24.3954 29.623 24.3851 29.5534L23.8905 29.6262C23.8857 29.5938 23.893 29.5781 23.8892 29.5909C23.8868 29.5995 23.8805 29.6161 23.8681 29.6401C23.8434 29.688 23.8029 29.7479 23.7506 29.8062C23.6359 29.9337 23.5191 29.9952 23.4418 29.9952V30.4952ZM24.3851 29.5534C24.3649 29.4158 24.3304 29.2482 24.2326 29.0906C24.131 28.927 23.9747 28.7953 23.747 28.7028L23.5588 29.166C23.7019 29.2241 23.7692 29.2921 23.8078 29.3544C23.8503 29.4228 23.873 29.5075 23.8905 29.6262L24.3851 29.5534ZM23.747 28.7028C23.6931 28.6809 23.6407 28.6778 23.6094 28.6775C23.5734 28.6771 23.5371 28.6805 23.5034 28.6854C23.4357 28.6953 23.3607 28.7138 23.2871 28.7374C23.1476 28.7823 22.9717 28.8592 22.852 28.9673L23.187 29.3384C23.229 29.3006 23.3256 29.2502 23.4402 29.2134C23.4937 29.1962 23.5412 29.1852 23.5753 29.1802C23.5925 29.1777 23.6019 29.1774 23.6045 29.1775C23.6117 29.1775 23.5906 29.1789 23.5588 29.166L23.747 28.7028ZM30.1857 18.0858C28.8921 18.7544 26.3767 20.0546 26.295 20.0993L26.5348 20.538C26.5347 20.5381 26.5355 20.5377 26.5377 20.5365C26.5397 20.5354 26.5423 20.534 26.5457 20.5322C26.5525 20.5287 26.5615 20.5239 26.5729 20.518C26.5957 20.5061 26.6271 20.4897 26.6664 20.4693C26.745 20.4285 26.8544 20.3717 26.9877 20.3026C27.2543 20.1645 27.6159 19.9774 28.0156 19.7706C28.8151 19.3571 29.7669 18.8651 30.4153 18.53L30.1857 18.0858ZM26.295 20.0993C23.3199 21.725 24.692 20.9593 21.8391 22.6004L22.0885 23.0338C24.9391 21.394 23.5637 22.1615 26.5348 20.538L26.295 20.0993ZM21.8392 22.6004C21.5625 22.7596 21.2995 22.9068 21.126 23.1366C20.9406 23.3822 20.877 23.6879 20.8865 24.1135L21.3864 24.1024C21.378 23.7264 21.4375 23.5538 21.525 23.4379C21.6244 23.3063 21.7841 23.2089 22.0885 23.0338L21.8392 22.6004ZM20.8865 24.1135C20.9613 27.4562 20.9224 30.8008 20.9127 34.1523L21.4127 34.1537C21.4224 30.8082 21.4613 27.4534 21.3864 24.1024L20.8865 24.1135ZM20.9127 34.1523C20.9122 34.3347 20.9238 34.5265 21.0003 34.7039C21.0813 34.8918 21.2226 35.0372 21.4306 35.153L21.6737 34.716C21.5425 34.643 21.4886 34.5737 21.4594 34.506C21.4257 34.4278 21.4122 34.3232 21.4127 34.1537L20.9127 34.1523ZM21.4307 35.153C24.3321 36.7666 27.2497 38.4219 30.1547 40.0352L30.3974 39.5981C27.4764 37.9759 24.5964 36.3415 21.6737 34.716L21.4307 35.153ZM30.1546 40.0352C30.2842 40.1072 30.4473 40.1498 30.6001 40.1618C30.7474 40.1735 30.9299 40.1601 31.0773 40.0739L30.8249 39.6422C30.8043 39.6543 30.7414 39.6714 30.6393 39.6634C30.5427 39.6558 30.4522 39.6285 30.3975 39.5981L30.1546 40.0352ZM31.0773 40.0739C34.0418 38.3409 36.9945 36.5868 39.9384 34.8171L39.6808 34.3885C36.7384 36.1574 33.7874 37.9105 30.8249 39.6422L31.0773 40.0739ZM39.9385 34.817C40.0693 34.7383 40.1736 34.6055 40.2433 34.4804C40.3134 34.3547 40.3707 34.1967 40.3715 34.0446L39.8715 34.0419C39.8713 34.0809 39.8523 34.1548 39.8065 34.2371C39.7603 34.3201 39.7092 34.3715 39.6808 34.3885L39.9385 34.817ZM40.3715 34.0446C40.3902 30.5531 40.3908 27.0615 40.3705 23.5699L39.8705 23.5728C39.8908 27.0624 39.8902 30.5522 39.8715 34.0419L40.3715 34.0446ZM40.3705 23.57C40.3696 23.4106 40.3084 23.2454 40.2338 23.1135C40.1592 22.9817 40.0498 22.8453 39.9166 22.7628L39.6534 23.1879C39.6906 23.211 39.7483 23.2708 39.7986 23.3597C39.8489 23.4486 39.8702 23.5286 39.8705 23.5728L40.3705 23.57ZM39.9166 22.7628C38.6113 21.9548 37.742 21.461 36.8574 20.9593C35.9742 20.4583 35.0757 19.9494 33.7072 19.1086L33.4454 19.5346C34.8217 20.3801 35.7263 20.8926 36.6107 21.3942C37.4937 21.895 38.3564 22.385 39.6534 23.188L39.9166 22.7628ZM33.7072 19.1086C33.4723 18.9643 32.6474 18.4424 31.9515 18.0637L31.7125 18.5029C32.3933 18.8734 33.2014 19.3846 33.4454 19.5346L33.7072 19.1086ZM39.0411 24.1815C39.0411 24.26 39.0411 24.3516 39.0411 24.4084L39.5411 24.4082C39.5411 24.3515 39.5411 24.2601 39.5411 24.1816L39.0411 24.1815ZM39.0411 24.4085C39.0428 27.618 39.0676 30.4381 39.0411 33.6435L39.5411 33.6476C39.5676 30.4394 39.5428 27.6126 39.5411 24.4082L39.0411 24.4085ZM39.0411 33.6435C39.0408 33.6751 39.026 33.7197 38.9666 33.7824C38.9065 33.8457 38.8211 33.9057 38.725 33.9641L38.9845 34.3915C39.0906 34.327 39.2223 34.2393 39.3294 34.1265C39.4371 34.0129 39.5394 33.8528 39.5411 33.6476L39.0411 33.6435ZM38.725 33.9641C36.4802 35.3269 34.6612 36.3342 32.3933 37.6767L32.648 38.1069C34.897 36.7756 36.7412 35.7534 38.9845 34.3914L38.725 33.9641ZM32.3933 37.6767C31.6738 38.1026 31.2983 38.321 31.072 38.4148L31.2634 38.8767C31.5314 38.7656 31.9464 38.5222 32.648 38.1069L32.3933 37.6767ZM31.2011 38.6241C31.1998 35.9494 31.1598 33.9601 31.1664 31.3852L30.6664 31.3839C30.6598 33.9472 30.6998 35.9734 30.7011 38.6244L31.2011 38.6241ZM31.1664 31.3852C31.1666 31.3068 31.1787 31.2715 31.1836 31.2613C31.1855 31.2575 31.1783 31.2706 31.1604 31.2775C31.1492 31.2818 31.1538 31.2757 31.1872 31.2824C31.2197 31.289 31.2655 31.305 31.3237 31.3349L31.5518 30.89C31.4012 30.8127 31.1837 30.7331 30.9814 30.8106C30.7384 30.9038 30.667 31.1506 30.6664 31.3839L31.1664 31.3852ZM31.3237 31.3349C31.7498 31.5533 32.161 31.7491 32.5544 31.9847L32.8113 31.5557C32.399 31.3089 31.9608 31.0996 31.5518 30.8899L31.3237 31.3349ZM32.5544 31.9847C33.2264 32.3869 33.9058 32.5678 34.5781 32.4967C35.2503 32.4256 35.8875 32.1056 36.4806 31.5563L36.1408 31.1895C35.6083 31.6827 35.0677 31.9422 34.5255 31.9995C33.9834 32.0568 33.4116 31.9151 32.8112 31.5557L32.5544 31.9847ZM36.5521 31.1564C35.7382 29.5444 34.3789 28.4759 33.0314 27.4478L32.7281 27.8453C34.084 28.8798 35.3505 29.8859 36.1058 31.3817L36.5521 31.1564ZM33.0136 27.7165C34.117 27.0831 35.1246 26.5563 36.1383 26.0265C37.1512 25.497 38.1701 24.9644 39.2894 24.3221L39.0406 23.8884C37.931 24.5251 36.9203 25.0535 35.9066 25.5834C34.8937 26.1129 33.8778 26.6439 32.7647 27.2829L33.0136 27.7165ZM27.9988 32.9653C27.673 32.9615 27.3278 32.794 27.0601 32.5246C26.7921 32.2549 26.63 31.9118 26.6317 31.5922L26.1317 31.5895C26.1291 32.0732 26.3681 32.5376 26.7054 32.877C27.0428 33.2165 27.5069 33.4596 27.993 33.4652L27.9988 32.9653ZM26.6317 31.5922C26.636 30.7827 27.2838 30.1272 28.027 30.1306L28.0292 29.6306C26.9878 29.6259 26.1374 30.5269 26.1317 31.5895L26.6317 31.5922ZM28.027 30.1306C28.7577 30.1338 29.3586 30.7524 29.3588 31.5656L29.8588 31.5655C29.8586 30.5056 29.0628 29.6352 28.0292 29.6306L28.027 30.1306ZM29.3588 31.5656C29.3589 32.3625 28.7489 32.9739 27.9988 32.9653L27.993 33.4652C29.0374 33.4773 29.8589 32.6247 29.8588 31.5655L29.3588 31.5656ZM23.1483 28.4847C23.4388 28.4896 23.7356 28.6383 23.9608 28.8794C24.1858 29.1204 24.3183 29.4313 24.3079 29.7307L24.8076 29.748C24.8234 29.2928 24.6246 28.8577 24.3262 28.5382C24.0279 28.2188 23.609 27.9924 23.1567 27.9848L23.1483 28.4847ZM24.3079 29.7307C24.2827 30.4532 23.6917 31.0278 23.0377 31.0184L23.0305 31.5183C23.9809 31.532 24.7738 30.7177 24.8076 29.7481L24.3079 29.7307ZM23.0377 31.0184C22.3873 31.009 21.8531 30.4494 21.8634 29.7327L21.3634 29.7255C21.3495 30.6938 22.0802 31.5046 23.0305 31.5183L23.0377 31.0184ZM21.8634 29.7327C21.8735 29.0225 22.4403 28.4727 23.1483 28.4847L23.1567 27.9848C22.1713 27.9681 21.3775 28.7395 21.3634 29.7256L21.8634 29.7327ZM34.2184 30.3544C33.4911 30.4594 32.9465 30.4671 32.5205 30.2732C32.1111 30.087 31.7597 29.6883 31.4876 28.8457L31.0118 28.9994C31.3076 29.9154 31.7279 30.4619 32.3135 30.7283C32.8824 30.9872 33.5562 30.9552 34.2899 30.8493L34.2184 30.3544ZM31.3746 29.0485C31.4502 29.0295 31.5266 29.006 31.5942 28.9854C31.6645 28.964 31.7261 28.9456 31.7837 28.932C31.9107 28.902 31.9576 28.9118 31.9704 28.918L32.188 28.4678C32.007 28.3803 31.8077 28.4125 31.6687 28.4454C31.5934 28.4632 31.5171 28.4863 31.4486 28.5071C31.3773 28.5288 31.3141 28.5482 31.2532 28.5634L31.3746 29.0485ZM31.9703 28.9179C32.7816 29.3107 33.5054 29.8342 34.1097 30.617L34.5055 30.3115C33.8451 29.456 33.055 28.8875 32.1881 28.4679L31.9703 28.9179ZM31.4876 28.8457C31.516 28.9339 31.4646 29.0259 31.3746 29.0485L31.2532 28.5634C31.0639 28.6108 30.9509 28.8109 31.0118 28.9994L31.4876 28.8457ZM33.0314 27.4478C33.1236 27.5181 33.1154 27.6581 33.0136 27.7165L32.7647 27.2829C32.5555 27.403 32.537 27.6995 32.7281 27.8453L33.0314 27.4478ZM36.4806 31.5563C36.5917 31.4534 36.6193 31.2893 36.5521 31.1564L36.1058 31.3817C36.0737 31.3182 36.0861 31.2401 36.1408 31.1895L36.4806 31.5563ZM31.072 38.4148C31.0553 38.4217 31.0396 38.4298 31.0313 38.4341C31.0149 38.4426 31.0185 38.4409 31.0045 38.4481C30.9966 38.4522 30.9903 38.4553 30.985 38.4577C30.9824 38.4589 30.9804 38.4597 30.979 38.4603C30.9775 38.4609 30.9768 38.4611 30.9769 38.4611C30.9769 38.4611 30.9781 38.4607 30.9804 38.4601C30.9826 38.4596 30.9866 38.4587 30.9919 38.458C31.0018 38.4568 31.0227 38.4552 31.05 38.4612C31.0794 38.4678 31.1131 38.4828 31.1426 38.5104C31.1715 38.5374 31.1861 38.5667 31.1929 38.5869L30.7189 38.7461C30.7523 38.8457 30.8314 38.9248 30.9411 38.9492C31.0257 38.9681 31.0995 38.9472 31.1348 38.9355C31.1757 38.9219 31.212 38.9037 31.2337 38.8925C31.267 38.8753 31.2645 38.8763 31.2634 38.8767L31.072 38.4148ZM34.2899 30.8493C34.5517 30.8115 34.6569 30.5077 34.5055 30.3115L34.1097 30.617C34.0383 30.5246 34.0836 30.3739 34.2184 30.3544L34.2899 30.8493ZM39.5411 24.1816C39.5411 23.9347 39.274 23.7545 39.0406 23.8884L39.2894 24.3221C39.1688 24.3913 39.0411 24.2949 39.0411 24.1815L39.5411 24.1816ZM30.7011 38.6244C30.7011 38.635 30.6996 38.6887 30.7189 38.7461L31.1929 38.5869C31.1987 38.6044 31.2003 38.618 31.2008 38.6236C31.2013 38.6285 31.2011 38.6311 31.2011 38.6241L30.7011 38.6244ZM30.4153 18.53C30.841 18.31 31.3175 18.2879 31.7125 18.5029L31.9515 18.0637C31.3859 17.7559 30.7316 17.8036 30.1857 18.0858L30.4153 18.53ZM22.8657 12.8605C22.8795 12.874 22.9047 12.9113 22.9259 12.9841C22.9461 13.0536 22.9576 13.1389 22.9576 13.2284C22.9576 13.3178 22.9461 13.4031 22.9259 13.4726C22.9047 13.5454 22.8795 13.5827 22.8657 13.5963L23.2162 13.9528C23.3135 13.8572 23.3716 13.7306 23.406 13.6122C23.4414 13.4905 23.4576 13.3574 23.4576 13.2284C23.4576 13.0993 23.4414 12.9662 23.406 12.8445C23.3716 12.7261 23.3135 12.5995 23.2162 12.5039L22.8657 12.8605ZM22.9197 13.5559C22.7561 13.6466 22.5247 13.697 22.2065 13.6258L22.0974 14.1138C22.5232 14.209 22.8813 14.1489 23.1621 13.9932L22.9197 13.5559ZM22.2064 13.6258C22.1929 13.6228 22.1319 13.5892 22.0617 13.4786C21.9968 13.3765 21.9608 13.2647 21.9571 13.1947L21.4578 13.2208C21.467 13.3977 21.5414 13.592 21.6396 13.7467C21.7325 13.893 21.8872 14.0669 22.0975 14.1138L22.2064 13.6258ZM21.9571 13.1947C21.9574 13.2003 21.9569 13.1764 21.9819 13.1208C22.0046 13.0705 22.0409 13.0109 22.0892 12.9513C22.1894 12.828 22.3157 12.7356 22.434 12.7064L22.3144 12.221C22.055 12.2849 21.8425 12.4619 21.7011 12.6361C21.6286 12.7253 21.5684 12.8215 21.5261 12.9153C21.4861 13.004 21.4521 13.1126 21.4578 13.2207L21.9571 13.1947ZM22.4737 12.693C22.5343 12.6668 22.5918 12.6719 22.6608 12.7049C22.7364 12.7409 22.8064 12.8022 22.8657 12.8605L23.2162 12.5039C23.1489 12.4378 23.0301 12.3271 22.8762 12.2536C22.7157 12.1771 22.5031 12.1352 22.2747 12.2344L22.4737 12.693ZM28.0285 11.3698C28.0609 11.3884 28.0883 11.4214 28.1063 11.5037C28.1259 11.5934 28.1249 11.6972 28.1249 11.8244H28.6249C28.6249 11.717 28.6285 11.5512 28.5948 11.3969C28.5594 11.2351 28.4758 11.0497 28.2769 10.9359L28.0285 11.3698ZM28.1249 11.8244C28.1249 11.9134 28.1035 11.9252 28.0904 11.9339C28.0509 11.9603 27.9482 11.9952 27.7082 11.9952V12.4952C27.9684 12.4952 28.199 12.4625 28.3679 12.3498C28.5631 12.2195 28.6249 12.0209 28.6249 11.8244H28.1249ZM27.7082 11.9952C27.616 11.9952 27.4887 11.9279 27.369 11.8015C27.3136 11.7429 27.271 11.6829 27.2452 11.6354C27.2322 11.6116 27.2259 11.5954 27.2235 11.5876C27.2197 11.5752 27.228 11.593 27.2226 11.6281L26.7285 11.5515C26.7173 11.6238 26.732 11.6899 26.7454 11.7337C26.7601 11.7821 26.7818 11.8299 26.806 11.8745C26.8546 11.9638 26.9238 12.0584 27.0058 12.1451C27.1611 12.3092 27.4116 12.4952 27.7082 12.4952V11.9952ZM27.2226 11.6281C27.2408 11.5102 27.2643 11.4269 27.3085 11.3593C27.3492 11.2971 27.4214 11.2273 27.576 11.1676L27.3959 10.7012C27.1602 10.7922 26.997 10.922 26.89 11.0857C26.7865 11.2441 26.7499 11.4131 26.7285 11.5515L27.2226 11.6281ZM27.576 11.1676C27.5463 11.1791 27.5277 11.1775 27.5367 11.1775C27.5411 11.1774 27.5524 11.1779 27.5713 11.1805C27.6089 11.1857 27.6601 11.197 27.7174 11.2145C27.8396 11.2518 27.9439 11.3031 27.9899 11.3426L28.3154 10.9631C28.1913 10.8566 28.0087 10.7807 27.8634 10.7363C27.7869 10.7129 27.7092 10.6948 27.6396 10.6852C27.605 10.6804 27.5681 10.6771 27.532 10.6775C27.5004 10.6778 27.4488 10.6807 27.3959 10.7012L27.576 11.1676ZM20.3088 0.498173C20.9801 0.827772 21.999 1.3281 22.8606 1.75146C23.2913 1.96314 23.6827 2.15557 23.9717 2.29778C24.1161 2.36889 24.2349 2.42741 24.3202 2.4695C24.3628 2.49055 24.3969 2.50743 24.4217 2.5197C24.434 2.52584 24.4439 2.53076 24.4513 2.53443C24.4549 2.53627 24.4578 2.53773 24.4601 2.53885C24.4612 2.5394 24.462 2.53983 24.4626 2.54014C24.4633 2.54048 24.4635 2.54059 24.4634 2.54054L24.6938 2.09677C24.6066 2.05152 21.8686 0.707008 20.5291 0.0493495L20.3088 0.498173ZM24.4634 2.54054C27.591 4.16411 26.1433 3.3966 29.144 5.03652L29.3838 4.59777C26.3809 2.95666 27.8254 3.7224 24.6938 2.09677L24.4634 2.54054ZM29.144 5.03653C29.4644 5.2116 29.6346 5.31005 29.7401 5.44282C29.8316 5.55799 29.8937 5.72827 29.8849 6.10208L30.3847 6.11384C30.3948 5.686 30.3273 5.378 30.1315 5.13173C29.9498 4.90308 29.6751 4.75695 29.3838 4.59777L29.144 5.03653ZM29.8849 6.10208C29.806 9.45329 29.847 12.8084 29.8572 16.1538L30.3572 16.1523C30.347 12.8006 30.3061 9.4563 30.3847 6.11384L29.8849 6.10208ZM29.8572 16.1537C29.8577 16.3227 29.8435 16.4253 29.8089 16.5016C29.7787 16.5681 29.7218 16.6388 29.5804 16.7135L29.8141 17.1555C30.0298 17.0415 30.1784 16.8974 30.2642 16.7083C30.3455 16.529 30.3578 16.3353 30.3572 16.1523L29.8572 16.1537ZM29.5804 16.7135C26.5047 18.3385 23.4718 19.9736 20.3975 21.5956L20.6308 22.0378C23.6893 20.4242 26.7591 18.7696 29.814 17.1555L29.5804 16.7135ZM20.3974 21.5956C20.3371 21.6275 20.2386 21.6555 20.1338 21.6633C20.0236 21.6716 19.9517 21.6544 19.925 21.6395L19.6822 22.0766C19.8323 22.16 20.0187 22.1733 20.1711 22.1619C20.3289 22.1501 20.4972 22.1083 20.6309 22.0377L20.3974 21.5956ZM19.925 21.6395C16.8065 19.9077 13.7001 18.1546 10.6028 16.3857L10.3548 16.8199C13.4536 18.5896 16.5617 20.3437 19.6822 22.0766L19.925 21.6395ZM10.6028 16.3857C10.5701 16.3671 10.516 16.3144 10.4678 16.2323C10.4196 16.1501 10.4007 16.0779 10.4005 16.0418L9.90046 16.0446C9.90134 16.1997 9.96274 16.3594 10.0365 16.4852C10.1104 16.6112 10.2198 16.7428 10.3548 16.8199L10.6028 16.3857ZM10.4005 16.0418C10.3808 12.5522 10.3801 9.06242 10.4016 5.57291L9.90159 5.56984C9.88013 9.06146 9.88083 12.5532 9.90046 16.0446L10.4005 16.0418ZM10.4016 5.57283C10.4018 5.53175 10.4232 5.45343 10.4761 5.36451C10.5286 5.27646 10.5897 5.21541 10.6315 5.19087L10.3779 4.75991C10.2403 4.84088 10.1255 4.97604 10.0465 5.10872C9.96804 5.24053 9.90254 5.40745 9.90159 5.56992L10.4016 5.57283ZM10.6314 5.19089C11.997 4.38781 12.9053 3.8977 13.8348 3.39682C14.7657 2.89522 15.7178 2.38287 17.1662 1.53749L16.9142 1.10566C15.4734 1.94661 14.5274 2.45568 13.5976 2.95666C12.6666 3.45836 11.7517 3.95199 10.378 4.75989L10.6314 5.19089ZM17.1662 1.53749C17.4314 1.38273 18.3302 0.842405 19.0603 0.469868L18.833 0.0244997C18.0865 0.405405 17.1696 0.956586 16.9142 1.10566L17.1662 1.53749ZM10.7746 6.18156C10.7746 6.26007 10.7746 6.35154 10.7746 6.40822L11.2746 6.40845C11.2746 6.35162 11.2746 6.26002 11.2746 6.18152L10.7746 6.18156ZM10.7746 6.40819C10.7728 9.61247 10.7467 12.4395 10.7746 15.6477L11.2746 15.6433C11.2467 12.438 11.2728 9.61815 11.2746 6.40848L10.7746 6.40819ZM10.7746 15.6477C10.7764 15.8575 10.8863 16.0189 10.9983 16.1311C11.1103 16.2432 11.2479 16.3302 11.3591 16.3943L11.6089 15.9612C11.5072 15.9025 11.4162 15.8419 11.3521 15.7778C11.2882 15.7138 11.2748 15.6704 11.2746 15.6434L10.7746 15.6477ZM11.359 16.3943C13.7204 17.7563 15.6609 18.778 18.0289 20.1097L18.274 19.6739C15.8873 18.3317 13.9717 17.3241 11.6089 15.9612L11.359 16.3943ZM18.0289 20.1097C18.7681 20.5254 19.2035 20.768 19.484 20.8784L19.6671 20.4131C19.4273 20.3187 19.0306 20.0994 18.274 19.6739L18.0289 20.1097ZM20.0536 20.6233C20.0549 17.9735 20.0971 15.9465 20.0901 13.3839L19.5901 13.3852C19.5971 15.9601 19.555 17.9482 19.5536 20.623L20.0536 20.6233ZM20.0901 13.3839C20.0895 13.1435 20.0103 12.8992 19.763 12.8092C19.5606 12.7355 19.3406 12.8104 19.1819 12.8877L19.4008 13.3372C19.4629 13.3069 19.513 13.29 19.5501 13.2829C19.5882 13.2756 19.5983 13.2813 19.5919 13.279C19.5786 13.2741 19.5717 13.2636 19.5729 13.2659C19.5774 13.2747 19.5899 13.3082 19.5901 13.3852L20.0901 13.3839ZM19.1819 12.8877C18.7507 13.0976 18.2904 13.3064 17.8571 13.5529L18.1043 13.9875C18.5191 13.7516 18.9528 13.5553 19.4008 13.3372L19.1819 12.8877ZM17.8571 13.5529C17.2229 13.9135 16.6159 14.0574 16.0383 13.9994C15.4609 13.9414 14.8884 13.6792 14.327 13.1852L13.9967 13.5606C14.6202 14.1092 15.2874 14.4264 15.9884 14.4969C16.6892 14.5672 17.3992 14.3884 18.1043 13.9875L17.8571 13.5529ZM14.3634 13.3864C15.1583 11.8907 16.4921 10.884 17.9201 9.84894L17.6267 9.4441C16.2089 10.4718 14.7787 11.5396 13.9219 13.1517L14.3634 13.3864ZM17.8832 9.28026C16.7118 8.64138 15.6427 8.11052 14.5765 7.58102C13.5095 7.05117 12.4453 6.52267 11.277 5.88578L11.0377 6.32478C12.2156 6.96687 13.2878 7.49933 14.3541 8.02884C15.4211 8.55869 16.482 9.08557 17.6438 9.71922L17.8832 9.28026ZM22.9171 15.4653C23.4203 15.4597 23.9044 15.2204 24.2589 14.8815C24.6124 14.5435 24.8662 14.0778 24.8635 13.5895L24.3635 13.5922C24.3653 13.9072 24.1969 14.249 23.9134 14.5201C23.6308 14.7902 23.2631 14.9614 22.9116 14.9653L22.9171 15.4653ZM24.8635 13.5894C24.8575 12.5147 23.9557 11.626 22.8794 11.6306L22.8815 12.1306C23.6836 12.1272 24.359 12.795 24.3635 13.5922L24.8635 13.5894ZM22.8794 11.6306C21.8112 11.6351 20.9668 12.4933 20.9666 13.5655L21.4666 13.5656C21.4667 12.7647 22.0926 12.1339 22.8815 12.1306L22.8794 11.6306ZM20.9666 13.5655C20.9664 14.637 21.8377 15.477 22.9171 15.4653L22.9116 14.9653C22.102 14.9741 21.4664 14.3502 21.4666 13.5656L20.9666 13.5655ZM28.0087 9.98477C27.5413 9.9923 27.1047 10.2147 26.7912 10.5335C26.4782 10.852 26.2668 11.2887 26.2836 11.7485L26.7833 11.7302C26.7725 11.4355 26.9098 11.1262 27.1478 10.8841C27.3854 10.6424 27.7022 10.4898 28.0167 10.4847L28.0087 9.98477ZM26.2836 11.7485C26.3196 12.7298 27.1598 13.5318 28.1407 13.5183L28.1339 13.0184C27.4259 13.0281 26.8093 12.4412 26.7833 11.7302L26.2836 11.7485ZM28.1407 13.5183C29.1214 13.5049 29.8976 12.706 29.8827 11.7254L29.3828 11.7329C29.3935 12.4372 28.8382 13.0087 28.1339 13.0184L28.1407 13.5183ZM29.8827 11.7254C29.8678 10.7276 29.0262 9.96845 28.0087 9.98477L28.0167 10.4847C28.7816 10.4724 29.3723 11.0345 29.3828 11.7329L29.8827 11.7254ZM16.2927 12.8496C17.0645 12.9554 17.7673 12.9864 18.3597 12.7303C18.9704 12.4663 19.4135 11.9223 19.726 11.003L19.2526 10.8421C18.9673 11.6815 18.598 12.0826 18.1613 12.2713C17.7064 12.468 17.1268 12.4593 16.3607 12.3542L16.2927 12.8496ZM19.4796 10.5627C19.4148 10.5473 19.3476 10.5277 19.2727 10.5061C19.2006 10.4852 19.1209 10.4624 19.0424 10.4447C18.8968 10.412 18.6947 10.3817 18.5118 10.4657L18.7205 10.9201C18.7415 10.9104 18.7986 10.9024 18.9329 10.9326C18.9944 10.9464 19.06 10.9651 19.1339 10.9864C19.2052 11.007 19.285 11.0304 19.3638 11.0492L19.4796 10.5627ZM18.5117 10.4658C17.6015 10.8843 16.7711 11.4516 16.0764 12.3066L16.4644 12.6219C17.1009 11.8386 17.8641 11.3139 18.7206 10.9201L18.5117 10.4658ZM19.726 11.003C19.7944 10.8017 19.6629 10.6063 19.4796 10.5627L19.3638 11.0492C19.285 11.0304 19.2182 10.9432 19.2526 10.8421L19.726 11.003ZM17.9201 9.84894C18.1229 9.702 18.099 9.39795 17.8832 9.28026L17.6438 9.71922C17.5411 9.66321 17.5281 9.51558 17.6267 9.4441L17.9201 9.84894ZM14.327 13.1852C14.3833 13.2347 14.3999 13.3177 14.3634 13.3864L13.9219 13.1517C13.8484 13.2899 13.8811 13.4589 13.9967 13.5606L14.327 13.1852ZM19.484 20.8784C19.4838 20.8783 19.4827 20.8781 19.5164 20.8947C19.5391 20.9058 19.5759 20.9233 19.617 20.9364C19.6529 20.9478 19.7243 20.9669 19.8058 20.9504C19.9102 20.9293 19.9948 20.8573 20.0329 20.7537L19.5635 20.5814C19.5717 20.5591 19.588 20.5299 19.6178 20.5042C19.6477 20.4784 19.6802 20.4657 19.7067 20.4603C19.7313 20.4553 19.7498 20.4569 19.7578 20.4579C19.7662 20.459 19.7702 20.4604 19.7687 20.4599C19.7645 20.4586 19.755 20.4548 19.7365 20.4457C19.7212 20.4382 19.7259 20.4404 19.7084 20.4317C19.6996 20.4274 19.6838 20.4197 19.6671 20.4131L19.484 20.8784ZM16.3607 12.3542C16.4781 12.3703 16.5508 12.5157 16.4644 12.6219L16.0764 12.3066C15.9058 12.5166 16.0414 12.8151 16.2927 12.8496L16.3607 12.3542ZM11.2746 6.18152C11.2746 6.31451 11.1361 6.37844 11.0377 6.32478L11.277 5.88578C11.0599 5.76741 10.7746 5.91514 10.7746 6.18156L11.2746 6.18152ZM19.5536 20.623C19.5536 20.6307 19.5534 20.6277 19.5539 20.6223C19.5545 20.616 19.5564 20.6007 19.5635 20.5814L20.0329 20.7537C20.0555 20.692 20.0536 20.6333 20.0536 20.6233L19.5536 20.623ZM20.5291 0.0493495C20.0031 -0.20891 19.38 -0.254625 18.833 0.0244997L19.0603 0.469868C19.4429 0.274645 19.898 0.296489 20.3088 0.498173L20.5291 0.0493495Z" fill="#3A3119" mask="url(#path-1-inside-1_75_1341)"/>
</g>
<defs>
<linearGradient id="paint0_linear_75_1341" x1="20.1356" y1="0.0845642" x2="20.1356" y2="39.9155" gradientUnits="userSpaceOnUse">
<stop stop-color="#F4E8F4"/>
<stop offset="1" stop-color="#EEEDEF"/>
</linearGradient>
<linearGradient id="paint1_linear_75_1341" x1="20.1356" y1="0.0845642" x2="20.1356" y2="39.9155" gradientUnits="userSpaceOnUse">
<stop stop-color="#F4E8F4"/>
<stop offset="1" stop-color="#EEEDEF"/>
</linearGradient>
<linearGradient id="paint2_linear_75_1341" x1="20.1356" y1="0.0845642" x2="20.1356" y2="39.9155" gradientUnits="userSpaceOnUse">
<stop stop-color="#F4E8F4"/>
<stop offset="1" stop-color="#EEEDEF"/>
</linearGradient>
</defs>
</svg>
